<?xml version="1.0" encoding="utf-8"?>
<!-- Generator: Adobe Illustrator 22.1.0, SVG Export Plug-In . SVG Version: 6.00 Build 0)  -->
<svg version="1.1" id="Слой_1" xmlns="http://www.w3.org/2000/svg" xmlns:xlink="http://www.w3.org/1999/xlink" x="0px" y="0px"
	 viewBox="0 0 353.6 327" style="enable-background:new 0 0 353.6 327;" xml:space="preserve">
<style type="text/css">
	.st0{fill:#E63BFF;}
	.st1{fill:#C62EFF;}
	.st2{fill:url(#SVGID_1_);}
	.st3{fill:#633EFF;}
</style>
<title>SUN</title>
<g id="sun">
	<g>
		<g>
			<path class="st0" d="M333.6,152.7c-6.2,2.9-12.6,5.3-18,9.6c-4.5,3.6-5.2,8,0.1,11c4.7,2.7,11,3,16.2,3.5
				c-1.9,0.6-3.9,1.1-5.8,1.7c-5.3,1.7-10.4,3.7-15.4,6.2c-3.8,1.8-8.4,3.9-10.9,7.4c-3.5,5.1,4.4,11.5,9.1,14.9
				c-1.8,0.3-3.7,0.7-5.5,1.2c-5.8,1.4-11.4,4.3-12.1,10.8c-0.9,8.9,3.4,16.4,8.7,23.2c0.8,1.1,1.7,2.1,2.6,3.2
				c-2.6-0.2-5.3-0.3-7.8-0.5c-4.4-0.4-9.2-0.7-11.6,3.6c-3.1,5.5,1.2,14.7,3.5,19.7c1.1,2.4,2.3,4.8,3.6,7.2c0,0-0.1,0-0.1-0.1
				c-2-0.9-3.9-2.2-5.9-3.2c-2.2-1-4.6-1.4-6.8-2.4c-2.6-1.2-6.1-2.3-8.7-0.8c-2.1,1.2-1.8,3.9-1.8,5.9c0.1,4.8,2.3,10.1,3.4,14.9
				c0.4,1.6,0.7,3.3,1.1,5c-2.8-1.8-5.9-3.5-8.7-5.1c-4.5-2.5-9.1-4.9-14.1-6.5c-5.5-1.8-9.1,1.6-10.7,6.7c-2.1,7.1-0.8,15.1,1,22.5
				c-3.8-4.3-8-8.4-11.8-12.7c-4.4-4.9-11.1-11.4-18.3-8.9c-6.6,2.4-8.3,9.3-9.3,15.6c-0.3,1.7-0.5,3.5-0.7,5.2
				c-3.3-6.3-7.8-12-14.2-13.3c-5.3-1-10.6,4.2-13,8.3c-1,1.7-2.9,10.8-3.7,12.7c-0.7-2.9-0.6-12.8-1.5-15.5
				c-1.6-4.9-3.9-6.5-9.5-7.8c-7.4-1.7-16.4,15.5-19.6,23.3c0.1-1.4,4.9-13.4,5-14.8c0.2-3.7,0.8-9.2-2.1-12.1
				c-1.4-1.3-3.4-0.3-5.7,2.1c0-1.9-0.1-3.8-0.5-5.6c-1-4.8-4-9-9-5.8c-2.3,1.5-4.2,4.1-6.1,6.1c-2.2,2.2-10.3,17.5-12.2,20
				c1.1-3.8,8.3-21.4,6.9-25c-0.9-2.3-15.3,13.1-16.9,14.1c0.5-2.8,13.4-20.9,12.9-23.6c-1.6-9.8-11.1-6.1-16.6-2
				c-5.8,4.2-23.7,22.4-28.8,27.8c4.8-8.6,21.9-30.6,24.5-40c0.9-3.1,1.8-7,0.4-10.1c-1.8-4.1-7.3-2.9-10.7-1.8
				c-8.8,2.9-17.2,9.2-24.6,15c2.5-2.6,5-5.3,7.3-8.1c4.4-5.1,8-10.9,10.5-17.2c1.1-2.8,1.6-5.6-0.8-7.8c-4.6-4.2-14.8-1.7-20.1-0.7
				c-5.6,1-11.4,1.5-17.1,2.4c2.4-0.9,4.7-1.9,7.1-3c5.3-2.5,10.1-5.7,15.1-8.9c2.8-1.8,6.4-4.4,5.1-8.1c-1-3-5.3-4.6-8-5.7
				c-5.4-2.1-11.1-3.8-16.7-5.5c-6.3-2-12.7-3.8-19.2-5.4c3.5-0.3,7-0.7,10.4-1.5c2.2-0.5,9.6-2,6.9-5.8c-2.4-3.2-8.6-4.4-12.2-5.4
				c-3.1-0.9-6.2-1.9-9.3-2.8c9.1-0.4,18.2-1.5,27-3.9c4.7-1.3,19.5-5.8,12.7-13c-4.8-5.2-12.4-7.9-18.9-10.3
				c-3.5-1.3-6.9-2.7-10.3-4.1c1.5-0.1,3.1-0.2,4.6-0.4c6.2-0.6,18.2-1.7,21.4-8.3c1.4-2.9-11.8-8.6-25.2-13.3
				c5.2,0.1,10.5,0.1,15.7-0.8c4.1-0.7,9.1-1.3,13-3c2.2-0.9,6.4-3.2,6.1-6.2c-0.8-7.3-11.8-10.2-17.5-12.6
				c-2.1-0.9-4.2-1.8-6.2-2.7c5,0.8,10,1.3,15.1,1.3c5.8,0,11.5-1,16.9-2.8c2-0.7,4.6-1.3,4.6-4c0-3-3.3-5.1-5.4-6.7
				c-4.7-3.7-9.3-7.7-13.9-11.6c-1.6-1.3-3.1-2.7-4.7-4.1c4.5,2.4,9.2,4.6,14,6.4c4.9,1.9,10.6,3.2,15.9,2.7
				c2.7-0.3,8.8-0.5,9.6-4.2c1.2-5.3-0.9-11.2-3.8-16.8c1.9,1.7,4.7,4,6.8,3.2c5.3-2-2-14.6-3.2-17.4c-0.7-1.8-1.5-3.5-2.2-5.3
				c3.9,6.6,9.2,12.7,14.6,17.7c2.9,2.7,9.6,8.4,11.7,1.6c1.9-6-0.6-13.9-1.5-19.9c-0.4-2.4-0.7-4.9-1.1-7.5c1.9,2.6,4,5.2,6.1,7.6
				c2.9,3.2,12,12.4,16,5.6c2.8-4.9,2-11.5,1.9-16.9c-0.1-3.8-0.5-7.6-0.9-11.3c1.7,3.3,3.5,6.7,5.2,10.1c2.2,4.5,4.5,8.9,7,13.3
				c0.8,1.4,1.8,2.7,3,3.6c1.8,1.8,4.1,2.7,6.5,0.6c3.9-3.3,5.5-8.9,6.6-14.3c0.1,0.3,0.2,0.6,0.2,0.8c0.9,2.7,3.7,8.9,7,5.4
				c2.8-2.9,2.8-8.9,3.4-12.6c1-6,2.5-12.2,3.3-18.4c1,7.6,1.1,15.4,2.6,22.9c0.6,3,4.8,15,9.6,13.1c2.4-0.9,3.7-3.3,4.9-5.5
				c2.1-3.7,4.2-7.4,6.3-11c0.3-0.5,0.6-1.1,0.9-1.6c-0.1,2-0.1,4.1,0.2,6c0.5,4,0,12,6,7.9c3.2-2.2,5.6-6.1,7.8-9.2
				c2.1-3,4.1-5.9,6.2-8.9c-1.1,4.4-2.2,8.9-2.9,13.4c-0.7,4.2-1.7,8.6,0.6,12.4c1.9,3.2,7.1,4.2,10.4,4.2c4.7,0.1,9.1-2.2,13.1-4.4
				c5.2-2.8,10.1-6.3,14.9-9.8c4.1-3,8.3-5.9,12.5-8.8c-3.9,6.4-7.7,12.8-11,19.4c-3,6-5.4,15.1,3.1,17.5c4.4,1.2,9.8,0.2,14.9-1.4
				c-0.8,1-1.5,2.1-1.1,3.4c1.1,4.7,12.8-0.5,15.1-1.2c4.2-1.3,8.3-2.7,12.5-4.2c-6.7,4.4-13.2,9.1-18.4,15.1
				c-3.8,4.4-9.4,13.8-0.3,15.6c10.3,2.1,22.2-0.5,32.4-2.2c3.1-0.5,6.1-1.1,9.2-1.7c-0.1,0.1-0.1,0.1-0.2,0.1
				c-7,5.4-14.7,12-18.9,19.9c-5.9,11.1,13.1,11.4,28.1,10c-1.8,1.3-3.6,2.5-5.4,3.8c-5.2,3.6-10.6,6.9-15.4,11
				c-4.3,3.6-10.1,10.5-2.2,13.6c8.8,3.4,20.6,0.6,29.4-1c4.5-0.8,9-1.9,13.6-2.8C346,146.7,339.8,149.8,333.6,152.7z"/>
			<path class="st1" d="M135.8,327l0.8-7.6c0.1-0.7,0.8-2.7,2.4-7.1c1.1-2.9,2.5-6.9,2.6-7.6l0.1-1c0.2-3.4,0.5-8-1.8-10.3
				c-0.2-0.2-0.4-0.3-0.6-0.3c-0.5,0-1.5,0.3-3.5,2.4l-1.9,2v-2.8c0-2-0.1-3.7-0.5-5.4c-0.3-1.4-1.5-6.1-4.6-6.1
				c-0.8,0-1.7,0.3-2.7,1c-1.5,1-2.9,2.5-4.2,4c-0.6,0.7-1.2,1.3-1.7,1.9c-1.2,1.2-4.6,7.2-7.3,11.9c-2.1,3.7-3.9,6.9-4.8,8
				l-3.6,4.7l1.6-5.7c0.3-1,0.9-2.7,1.7-4.9c1.8-5.1,5.5-15.3,5.3-18.7c-2.1,1.2-7.8,6.8-10.7,9.6c-2.8,2.7-4.1,4-4.8,4.4l-2,1.1
				l0.4-2.3c0.2-1.4,2.4-4.9,5.8-10.4c2.8-4.6,7.1-11.5,7.1-12.8c-0.6-3.5-2.3-5.2-5.2-5.2c-2.7,0-6.3,1.5-9.8,4
				c-5.8,4.2-23.7,22.4-28.6,27.7l-6.2,6.6l4.4-7.9c1.7-3,4.8-7.6,8.4-12.8c6.4-9.4,14.3-21,16-27c0.9-3.2,1.6-6.7,0.5-9.4
				c-1.1-2.5-4.3-2.9-9.3-1.2c-8.7,2.9-17.1,9.2-24.3,14.8l-1.5-1.6c2.7-2.8,5.1-5.4,7.3-8c4.6-5.4,8.1-11.1,10.3-16.8
				c1.2-3.2,1.1-5.1-0.5-6.6c-1.5-1.4-3.9-2.1-7.3-2.1c-3.5,0-7.3,0.7-10.3,1.3l-1.6,0.3c-3.3,0.6-6.7,1-10,1.5
				c-2.4,0.3-4.7,0.6-7.1,1l-9.8,1.5l9.2-3.6c2.6-1,4.9-2,7-3c4.5-2.1,8.6-4.7,12.9-7.5l2.1-1.3c3-1.9,5.6-4,4.7-6.8
				c-0.8-2.4-4.6-3.9-7-4.9l-0.3-0.1c-4.4-1.8-9.2-3.2-13.7-4.6l-2.9-0.9c-6.8-2.1-13.1-3.9-19.2-5.3l-6.6-1.6l6.8-0.6
				c4.1-0.3,7.3-0.8,10.2-1.4h0.2c3.8-0.8,5.9-1.8,6.3-2.8c0-0.1,0.2-0.5-0.4-1.3c-1.8-2.4-6.4-3.6-9.8-4.5
				c-0.7-0.2-1.3-0.3-1.8-0.5c-2.4-0.7-4.8-1.4-7.1-2.2l-8.1-2.5l6.2-0.3c10.2-0.5,19-1.7,26.7-3.8c7.9-2.1,12.8-4.9,13.5-7.6
				c0.3-1.1-0.1-2.3-1.4-3.6c-4.5-4.8-11.5-7.4-17.8-9.8l-0.7-0.3c-3.7-1.4-7.3-2.8-10.4-4.1l-4.3-1.7l6-0.5
				c1.1-0.1,2.1-0.2,3.2-0.3H28c6.1-0.6,17.4-1.7,20.3-7.7c0-1.1-5.1-5-24.6-11.7L17,126l7.1,0.2c1.4,0,2.8,0.1,4.3,0.1
				c4.4,0,7.9-0.3,11.2-0.8l2.1-0.4c3.5-0.6,7.5-1.2,10.6-2.5c2.8-1.2,5.6-3.1,5.4-5.1c-0.6-5.5-8.2-8.4-13.8-10.5
				c-1.1-0.4-2.1-0.8-3.1-1.2c-1.8-0.7-3.5-1.5-5.3-2.3L27,99.7l8.1,1.2c5.6,0.9,10.3,1.3,14.7,1.3H50c5.5,0,11.1-0.9,16.6-2.7
				l0.3-0.1c2.2-0.7,3.6-1.2,3.5-2.9c0-2-2.3-3.8-4.1-5.2c-0.3-0.2-0.6-0.5-0.9-0.7c-4.3-3.4-8.6-7-12.7-10.6l-1.2-1.1
				c-1.6-1.3-3.1-2.7-4.7-4.1l-6.6-6L48,73c5,2.7,9.5,4.7,13.9,6.4c5.7,2.1,10.7,3,15.4,2.6l0.6-0.1c2.6-0.2,7.4-0.6,8-3.3
				c0.9-4.2-0.2-9.3-3.7-16.1l-2.2-5l4.3,3.8c1.2,1,4.2,3.6,5.7,3c0.5-0.2,0.8-0.5,1-1c1.1-2.9-2.3-9.7-3.9-13.1
				c-0.4-0.8-0.7-1.5-0.9-2c-0.7-1.7-1.5-3.5-2.2-5.3l1.9-1c4.5,7.6,10.3,13.7,14.4,17.5c3.2,3,5.8,4.5,7.5,4.5
				c0.7,0,1.8-0.3,2.4-2.4c1.4-4.4,0.2-10.1-0.7-15.1c-0.3-1.5-0.6-3-0.8-4.3l-1.8-11.9l2.6,3.6c2,2.7,4,5.2,6.1,7.5
				c1.6,1.8,7.2,7.7,11.2,7.7c1.3,0,2.2-0.6,3-1.9c2.3-4,2-9.4,1.8-14.2c0-0.7-0.1-1.5-0.1-2.1c-0.1-3.9-0.5-7.7-0.9-11.3l-0.6-5.7
				l2.6,5.1c1.8,3.3,3.5,6.7,5.2,10.1c2.5,5.1,4.7,9.3,7,13.2c0.9,1.6,1.8,2.6,2.7,3.2c2.1,2,3.5,2.1,5.2,0.7
				c3.6-3,5.1-8.4,6.2-13.7l0.9-4.1l1.5,4.8c0.9,2.8,2.6,5.7,4,5.7c0.4,0,0.8-0.2,1.2-0.7c1.9-2,2.4-6.1,2.8-9.4
				c0.1-0.9,0.2-1.8,0.3-2.6c0.4-2.6,0.9-5.3,1.5-8c0.7-3.4,1.4-6.9,1.9-10.4l1-7.7l1.1,7.8c0.4,3.1,0.7,6.3,0.9,9.3
				c0.4,4.5,0.7,9.1,1.6,13.5c0.8,3.8,4.4,12.4,7.5,12.4c0.2,0,0.4,0,0.7-0.1c2-0.8,3.2-2.9,4.4-5c2.1-3.7,4.2-7.4,6.3-11.1l3.2-5.5
				l-0.2,4.4c-0.1,2.2,0,4.2,0.2,5.9c0.1,0.6,0.1,1.3,0.2,2.1c0.2,2.4,0.5,6,1.9,6c0.4,0,1.1-0.2,2.2-1c2.6-1.8,4.7-4.9,6.6-7.7
				l2.8-4.1c1.4-2,2.8-4,4.2-6l3.4-4.8l-1.4,5.7c-1,3.9-2.1,8.6-2.8,13.3l-0.2,1.3c-0.6,3.6-1.2,7.3,0.6,10.4c1.6,2.6,6,3.6,9.5,3.7
				h0.3c4.3,0,8.3-2.1,12.1-4.2c5.4-2.9,10.5-6.5,14.9-9.7s8.8-6.2,12.5-8.8l4.3-2.9l-2.7,4.4c-3.7,6.1-7.6,12.6-11,19.3
				c-1.2,2.4-3.8,8.5-2.1,12.4c0.8,1.7,2.2,2.9,4.5,3.5c3.5,1,7.9,0.6,14.3-1.4l3.7-1.1l-2.5,2.9c-0.8,0.9-1.1,1.7-0.9,2.4
				c0.1,0.3,0.3,1.1,2.3,1.1c2.9,0,7.4-1.7,9.8-2.6c0.7-0.3,1.2-0.5,1.5-0.6c3.8-1.2,7.9-2.6,12.5-4.2l8.6-3.1l-7.7,5
				c-6.4,4.2-13,8.8-18.2,14.9c-3,3.4-5.7,8.4-4.7,11.3c0.5,1.3,1.7,2.2,3.8,2.6c2.5,0.5,5.2,0.7,8.2,0.7c6.7,0,13.6-1.2,20.3-2.4
				l3.4-0.6c3-0.5,6.1-1.1,9.2-1.7l4.2-0.8l-3.5,2.9c-7.3,5.7-14.7,12-18.7,19.6c-1.1,2.1-1.3,3.7-0.5,5c1.1,1.8,4.8,4,16.2,4
				c3.4,0,7.2-0.2,11.4-0.6l4.1-0.4l-4.7,3.3c-1.3,0.9-2.7,1.9-4,2.8c-1.4,1-2.8,1.9-4.2,2.9c-3.7,2.5-7.6,5.1-11.1,8.1
				c-3,2.6-6.1,6.2-5.7,8.8c0.2,1.2,1.3,2.2,3.2,2.9c2.7,1,5.8,1.5,9.6,1.5c5.4,0,11.2-1.1,16.3-2c1-0.2,2-0.4,3-0.6
				c2.8-0.5,5.7-1.1,8.5-1.7c1.7-0.4,3.4-0.7,5.1-1.1l8.3-1.7l-12.5,6.1c-4.5,2.2-9.2,4.5-13.8,6.7c-1.1,0.5-2.3,1-3.4,1.5
				c-5,2.2-10.1,4.5-14.4,7.9c-2.2,1.7-3.3,3.6-3.2,5.3c0.1,1.8,1.8,3.1,3.2,3.9c4,2.3,9.4,2.8,14.1,3.2l7.3,0.7l-5.4,1.6
				c-1.9,0.6-3.8,1.1-5.8,1.7c-5,1.6-10.1,3.6-15.2,6.1l-0.9,0.4c-3.5,1.7-7.5,3.6-9.6,6.6c-2.1,3.1,0.8,7.5,8.9,13.4l2,1.5
				l-2.5,0.5c-1.8,0.3-3.6,0.7-5.4,1.2c-7.1,1.7-10.8,4.9-11.3,9.9c-1,9,4,16.7,8.5,22.4c0.8,1.1,1.7,2.1,2.6,3.1l1.7,2l-5-0.3
				c-1.8-0.1-3.6-0.2-5.4-0.3c-1.2-0.1-2.4-0.2-3.6-0.2c-3.6,0-5.7,1-7,3.3c-2.7,4.9,1.2,13.7,3.4,18.4l0.2,0.4
				c1.1,2.4,2.4,4.8,3.6,7.1l1.5,2.9l-3-1.4c-1.2-0.6-2.3-1.2-3.3-1.7c-0.9-0.5-1.8-1-2.7-1.5c-1-0.5-2.1-0.8-3.3-1.2
				c-1.1-0.3-2.3-0.7-3.5-1.2c-3.4-1.6-6-1.9-7.7-0.8c-1.3,0.7-1.3,2.3-1.2,4.5v0.4c0.1,3,1,6.4,2,9.6c0.5,1.7,1,3.4,1.4,5.1
				c0.4,1.6,0.7,3.3,1.1,4.9l0.6,2.6l-2.3-1.5c-2.3-1.5-4.8-2.8-7.1-4.2l-1.6-0.9c-4.2-2.4-8.8-4.8-13.9-6.4
				c-0.9-0.3-1.7-0.4-2.5-0.4c-4.2,0-6.1,4-6.8,6.4c-2.1,7-0.7,15,1,22l1,4.3l-2.9-3.3c-2-2.3-4.2-4.6-6.3-6.8
				c-1.8-1.9-3.7-3.9-5.4-5.8c-3.8-4.2-8.9-9.1-14.2-9.1c-1,0-2,0.2-3,0.5c-6.1,2.2-7.6,8.8-8.6,14.7c-0.3,1.7-0.5,3.5-0.7,5.2
				l-0.4,3.6l-1.7-3.2c-3.9-7.6-8.3-11.7-13.5-12.7c-4.9-1-9.9,4.3-11.8,7.8c-0.5,0.9-1.4,4.5-2.1,7.2c-0.6,2.4-1.1,4.5-1.5,5.4
				l-1.2,3.1l-0.8-3.2c-0.4-1.5-0.5-4.4-0.7-7.5s-0.4-6.6-0.8-7.9c-1.5-4.4-3.3-5.9-8.7-7.1c-6-1.4-14.4,13.1-18.4,22.7L135.8,327z
				 M156.3,295c0.4,0,0.9,0.1,1.3,0.2c6.1,1.4,8.5,3.4,10.3,8.6c0.5,1.5,0.7,4.9,0.9,8.4c0,0.5,0.1,1,0.1,1.4c1-3.8,1.6-6.4,2.2-7.3
				c2.4-4.3,7.4-9,12.5-9c0.5,0,1.1,0.1,1.6,0.2c5.1,1,9.5,4.6,13.3,10.9c0.1-0.6,0.2-1.3,0.3-1.9c1.1-7.1,3.1-14,10-16.5
				c1.2-0.4,2.4-0.6,3.7-0.6c6.2,0,11.7,5.2,15.8,9.8c1.8,1.9,3.6,3.9,5.4,5.8c1.2,1.3,2.4,2.5,3.6,3.8c-1.2-6.2-1.9-12.9-0.1-19
				c1.9-6.3,6.5-9.2,12-7.4c5.2,1.7,10.1,4.3,14.3,6.6l1.5,0.9c1.6,0.9,3.3,1.9,5,2.9c-0.2-0.8-0.4-1.6-0.5-2.4
				c-0.3-1.6-0.8-3.2-1.3-4.9c-1-3.3-2-6.8-2.1-10.1V275c-0.1-2.1-0.2-5,2.3-6.4c2.4-1.4,5.6-1.2,9.7,0.8c1,0.5,2,0.8,3.2,1.1
				c1.2,0.4,2.4,0.7,3.6,1.3c1,0.5,1.9,1,2.9,1.6c0,0,0,0,0.1,0c-0.7-1.3-1.4-2.7-2-4.1l-0.2-0.4c-2.4-5.4-6.5-14.5-3.3-20.3
				c2.2-3.9,6.1-4.4,8.9-4.4c1.3,0,2.6,0.1,3.8,0.2c1.7,0.1,3.4,0.2,5.2,0.3c-0.3-0.4-0.7-0.8-1-1.3c-4.7-6-10-14.1-8.9-23.9
				c0.6-5.9,5-9.8,13-11.8c1-0.2,2.1-0.5,3.1-0.7c-4.4-3.4-11.2-9.5-7.4-15c2.4-3.5,6.7-5.6,10.4-7.4l0.9-0.4
				c5.2-2.5,10.5-4.6,15.5-6.2c0.2-0.1,0.3-0.1,0.5-0.2c-3.9-0.5-7.8-1.2-11.2-3.1c-3.3-1.9-4.2-4.1-4.3-5.6c-0.2-2.4,1.2-4.9,4-7.1
				c4.5-3.6,9.8-5.9,14.9-8.2c1.1-0.5,2.2-1,3.4-1.5c3.6-1.7,7.2-3.4,10.7-5.2c-1.7,0.3-3.4,0.7-5.1,1c-1,0.2-2,0.4-3,0.6
				c-5.2,1-11,2.1-16.7,2.1c-4,0-7.4-0.6-10.3-1.7c-2.7-1-4.2-2.6-4.5-4.6c-0.7-4.2,4.3-9,6.5-10.8c3.6-3,7.5-5.7,11.3-8.2
				c1.4-0.9,2.8-1.9,4.2-2.9c0.7-0.5,1.4-1,2.1-1.5c-2.7,0.2-5.3,0.3-7.6,0.3c-10.1,0-16-1.7-18.1-5.1c-1.2-2-1-4.4,0.5-7.1
				c3.6-6.7,9.6-12.4,15.9-17.6c-1.6,0.3-3.2,0.6-4.8,0.9l-3.4,0.6c-6.5,1.1-13.8,2.4-20.7,2.4c-3.2,0-6-0.3-8.6-0.8
				c-2.9-0.6-4.7-1.9-5.4-4c-1.7-5.1,4-12.1,5.2-13.4c3.6-4.1,7.7-7.6,12-10.7c-1.7,0.6-3.3,1.1-4.9,1.6c-0.3,0.1-0.8,0.3-1.4,0.5
				c-2.7,1-7.2,2.7-10.5,2.7c-3.1,0-4.2-1.5-4.5-2.8c-0.2-0.6-0.2-1.3,0-1.9c-5.5,1.5-9.6,1.6-13,0.7c-2.9-0.8-4.9-2.4-5.9-4.7
				c-2.1-4.7,0.4-11,2.1-14.3c2.6-5.2,5.5-10.3,8.4-15.1c-2.6,1.8-5.5,3.8-8.3,5.9c-4.5,3.3-9.6,6.9-15,9.8c-4,2.1-8.5,4.5-13.3,4.5
				h-0.3c-2,0-8.8-0.5-11.4-4.8c-2.3-3.8-1.5-8.1-0.9-11.9l0.2-1.3c0.4-2.7,1-5.3,1.5-7.8c-0.3,0.4-0.6,0.8-0.9,1.3l-2.8,4.1
				c-2,2.9-4.3,6.2-7.2,8.2c-1.3,0.9-2.4,1.3-3.4,1.3c-3.5,0-3.8-4.6-4.1-8c-0.1-0.7-0.1-1.4-0.2-2c-0.1-0.7-0.1-1.4-0.2-2.1
				c-1.8,3-3.5,6.1-5.2,9.1c-1.3,2.3-2.7,4.9-5.5,6c-0.5,0.2-1,0.3-1.5,0.3c-5.5,0-9.2-12-9.7-14.2c-0.9-4.6-1.3-9.2-1.7-13.8
				c0-0.4-0.1-0.9-0.1-1.3c-0.2,0.9-0.3,1.8-0.5,2.7c-0.5,2.6-1,5.3-1.5,7.9c-0.1,0.8-0.2,1.6-0.3,2.5c-0.4,3.6-1,8.1-3.4,10.6
				c-0.9,0.9-1.8,1.4-2.8,1.4c-2.3,0-4-2.5-5-4.6c-1.2,4.4-2.9,8.6-6.1,11.4c-2.5,2.1-5.3,1.9-8-0.7c-1.4-0.9-2.5-2.6-3.2-3.8
				c-2.3-3.9-4.5-8.2-7-13.3c-0.8-1.7-1.7-3.4-2.6-5.1c0.2,1.9,0.3,3.8,0.3,5.8c0,0.7,0.1,1.4,0.1,2.1c0.2,5.1,0.5,10.9-2.1,15.4
				c-1.1,2-2.8,3-4.9,3c-4.8,0-10.6-5.9-12.9-8.4c-1.2-1.3-2.4-2.8-3.6-4.2l0.5,3.2c0.2,1.3,0.5,2.7,0.8,4.2
				c1,5.3,2.2,11.2,0.7,16.2c-1,3.3-3,4-4.5,4c-3.1,0-6.6-2.9-8.9-5.1c-2.4-2.2-5.4-5.3-8.4-8.9c2.1,4.5,3.7,9.1,2.6,12
				c-0.4,1.1-1.2,1.8-2.3,2.2c-1.3,0.5-2.8,0.1-4.3-0.7c1.7,4.1,3,8.9,2,13.5c-0.9,4.2-6.8,4.7-10,5L77.8,85
				c-4.9,0.4-10.3-0.5-16.3-2.7c-2.1-0.8-4.3-1.7-6.5-2.7c4,3.4,8.1,6.8,12.2,10.1c0.3,0.2,0.5,0.4,0.8,0.7c2.1,1.6,4.9,3.8,4.9,6.9
				c0,3.4-3,4.3-5.1,5l-0.3,0.1c-5.8,1.8-11.6,2.8-17.3,2.8H50c-2.4,0-4.8-0.1-7.5-0.3c0.7,0.3,1.4,0.6,2.2,0.9
				c6.1,2.3,14.4,5.5,15.2,12.3c0.4,3.9-4.6,6.4-6.7,7.4c-3.3,1.4-7.5,2.1-11.1,2.7l-2.1,0.4c-2.9,0.5-6,0.8-9.5,0.9
				c12.1,4.5,18.7,8.1,19.8,10.7c0.3,0.8,0.2,1.5,0,1.9c-3.4,7-15.5,8.2-22,8.9h-0.2l0,0c1.9,0.8,4,1.6,6,2.3l0.7,0.3
				c6.5,2.4,13.8,5.2,18.6,10.3c1.8,1.9,2.4,3.8,1.9,5.7c-1.3,4.5-8.9,7.4-15.1,9.1c-6.3,1.7-13.3,2.9-21.3,3.5
				c1.2,0.4,2.4,0.7,3.6,1.1c0.5,0.2,1.1,0.3,1.8,0.5c3.7,1,8.8,2.3,11,5.4c1,1.4,0.9,2.6,0.6,3.3c-0.9,2.3-4.5,3.4-7.9,4.1h-0.2
				c-1.4,0.3-2.9,0.6-4.5,0.8c4.3,1.1,8.7,2.4,13.4,3.9l2.9,0.9c4.6,1.4,9.4,2.9,13.9,4.7l0.3,0.1c2.8,1.1,7.1,2.8,8.3,6.2
				c1.6,4.8-3.4,8-5.6,9.4l-2.1,1.3c-4.1,2.6-8.3,5.3-12.8,7.5c3-0.4,6-0.8,9-1.3l1.6-0.3c2.9-0.6,7-1.4,10.7-1.4
				c4,0,6.8,0.9,8.8,2.6c3,2.8,2.2,6.3,1.1,9c-2.3,5.9-5.8,11.7-10.5,17.2c5-3.5,10.4-6.6,15.9-8.4c2.3-0.8,4.3-1.2,6-1.2
				c3.7,0,5.4,1.9,6.1,3.5c1.5,3.3,0.7,7.3-0.3,10.9c-1.8,6.3-9.5,17.6-16.3,27.6c-0.8,1.2-1.6,2.3-2.3,3.4
				c7.3-7.4,17.2-17.1,21.2-20c1.8-1.3,6.6-4.5,11.1-4.5c2.3,0,6.3,0.9,7.3,7.1c0.3,1.7-2.2,5.9-7.4,14.3c-0.9,1.4-1.8,2.9-2.6,4.3
				c7.3-7.1,10.9-10.2,12.6-10.2c0.6,0,1.2,0.4,1.4,0.9c0.9,2.3-0.8,8.3-3.2,15.4c3.2-5.6,5.6-9.6,6.7-10.8c0.6-0.6,1.1-1.2,1.7-1.8
				c1.4-1.6,2.9-3.2,4.6-4.4c4.8-3.1,9.2-0.3,10.7,6.4c0.2,1.1,0.4,2.2,0.5,3.4c2.2-1.7,4.1-1.8,5.4-0.5c3,3,2.7,8.2,2.5,12l-0.1,1
				c0,0.2-0.1,0.7-0.3,1.3C147.1,300.3,151.7,295,156.3,295z"/>
		</g>
		<g>
			
				<radialGradient id="SVGID_1_" cx="179.2" cy="161.9" r="110.6" gradientTransform="matrix(1 0 0 -1 0 328)" gradientUnits="userSpaceOnUse">
				<stop  offset="0.4154" style="stop-color:#FFFFFF"/>
				<stop  offset="0.4961" style="stop-color:#FCFAFC"/>
				<stop  offset="0.5892" style="stop-color:#F4ECF4"/>
				<stop  offset="0.6884" style="stop-color:#E6D5E7"/>
				<stop  offset="0.7918" style="stop-color:#D3B5D4"/>
				<stop  offset="0.8975" style="stop-color:#BB8CBC"/>
				<stop  offset="0.9487" style="stop-color:#AE75AF"/>
			</radialGradient>
			<path class="st2" d="M289.8,166.1c0,61.1-49.5,110.6-110.6,110.6S68.6,227.2,68.6,166.1S118.1,55.5,179.2,55.5
				S289.8,105.1,289.8,166.1z"/>
		</g>
	</g>
</g>
<g>
	<path class="st3" d="M276.3,128.5c-4.3-11-10.3-21.1-17.8-29.8c-15.5-18.3-37.3-31-61.9-35.2c-5.7-1-11.4-1.6-17.4-1.6
		c-6,0-11.8,0.6-17.4,1.6c-24.7,4.2-46.4,16.9-61.9,35.1c-7.5,8.8-13.6,18.9-17.8,29.8c-4.6,11.8-7.2,24.4-7.2,37.7
		c0,12.3,2.2,23.9,6.1,34.8c4,11.1,9.6,21.4,16.9,30.4c15.7,19.5,38.2,33.1,63.9,37.4c5.7,1,11.4,1.6,17.4,1.6
		c6,0,11.8-0.6,17.4-1.6c25.8-4.3,48.2-18,63.9-37.4c7.3-9,12.9-19.2,16.9-30.4c3.8-10.9,6.1-22.7,6.1-34.8
		C283.5,152.8,280.8,140.1,276.3,128.5z M264.1,135.5L245.8,146c-3.4-11.4-9.7-21.6-18.1-29.7l18.4-10.6
		C253.9,114.3,260.1,124.4,264.1,135.5z M235,166.2c0,30.8-25,55.8-55.8,55.8s-55.8-25-55.8-55.8s25-55.8,55.8-55.8
		S235,135.4,235,166.2z M179.2,75.8c6,0,11.8,0.6,17.4,1.7v21.3c-5.6-1.4-11.3-2.2-17.4-2.2c-6,0-11.9,0.9-17.4,2.2V77.5
		C167.4,76.4,173.3,75.8,179.2,75.8z M112.3,105.7l18.4,10.6c-8.3,8.1-14.6,18.3-18.1,29.7l-18.3-10.5
		C98.4,124.4,104.5,114.3,112.3,105.7z M93.3,194l18.5-10.7c3,11.5,8.8,22,16.7,30.5l-18.3,10.6C102.8,215.5,96.9,205.2,93.3,194z
		 M179.2,256.5c-6,0-11.8-0.6-17.4-1.7v-21.3c5.6,1.4,11.3,2.2,17.4,2.2c6,0,11.8-0.9,17.4-2.2v21.3
		C191,255.9,185.2,256.5,179.2,256.5z M248.2,224.3L230,213.8c7.9-8.4,13.8-18.9,16.7-30.5l18.5,10.7
		C261.5,205.2,255.7,215.5,248.2,224.3z"/>
	<path class="st3" d="M185.1,158.6c-8.9-3.3-12.5-5.6-12.5-9c0-2.9,2.1-5.9,9-5.9c4,0,7.1,0.6,9.6,1.4c1.4,0.4,3,0.3,4.3-0.4
		c1.3-0.7,2.2-1.9,2.7-3.4l0.1-0.3c0.9-3.3-1.2-6.7-4.5-7.6c-2.6-0.6-5.6-1.2-9.3-1.3v-4c0-2.7-1.9-5-4.6-5.2
		c-3-0.3-5.6,2.1-5.6,5.1v4.8c-11.1,2.1-17.6,9.4-17.6,18.6c0,10.2,7.6,15.3,18.8,19.1c7.7,2.6,11,5.1,11,9.1c0,4.2-4.1,6.4-10,6.4
		c-4.3,0-8.2-0.9-11.8-2.1c-1.5-0.5-3.1-0.4-4.4,0.3c-1.4,0.7-2.4,2-2.8,3.5v0.2c-1,3.5,1.2,7.2,4.6,8.2c3.4,1.1,7.5,1.8,11.6,1.9
		v4.7c0,2.8,2.2,5.1,5.1,5.1l0,0c2.8,0,5.1-2.2,5.1-5.1v-5.3c12-2,18.6-10,18.6-19.2C202.5,168.7,197.5,163,185.1,158.6z"/>
</g>
</svg>
