<?xml version="1.0" encoding="utf-8"?><svg version="1.2" baseProfile="tiny" xmlns="http://www.w3.org/2000/svg" xmlns:xlink="http://www.w3.org/1999/xlink" x="0px" y="0px" viewBox="0 0 734.8 295.7" xml:space="preserve"><g id="line_1"><path id="cloud1_1_" fill="#44548D" d="M730,55.4c-3.7-1.9-6.7-5.7-11.4-5.9c-6.6-13.4-36.6-37.4-66.2-37.4c-27,0-47.7,7.8-55.5,22.4c-15.5-2.8-24.3,2.9-29,5.4c-6.1-13-19.4-28.9-46.8-28.6c-37.6,0.5-57,15.9-62.6,33.6c-11.1-1.6-19.3,0.2-26,3.5c-4.8-9.2-11.7-20.1-43.2-23c-43.9-3.9-65.3,34.8-67.2,39.4c-4-4-9.4-4.4-17.4-4.4c-5.8,0-11.1,1.4-15.1,3.7c-6.2-14.4-27.6-23.4-44.1-23.4c-7,0-12.8,1-20.2,4.7c-4.4-16.2-21.2-27.8-33.6-32.4C184,4.6,169.2,0,147.5,0c-22.6,0-48.4,10.1-62.4,22.6c-6.8-1.2-16.8-1.5-31.5-1.5c-21.8,0-40.4,17.2-51.7,29.2L1.6,95.5c0,0.1,0.1,0.1,0.1,0.2v198.1h730.6L730,55.4z"/></g><g id="Слой_4"><path id="cloud2" fill="#2E4264" d="M734.8,51.6c-3.7-1.9-8.1-3.2-12.8-3.4c-6.6-13.4-29.5-35.5-59.1-35.5c-27,0-53.2,11.1-64.1,25c-2.3-0.3-4.8-0.5-7.3-0.5c-6.8,0-12.7,1.5-17.5,3.9c-6.1-13-18.9-25.8-32-26.5c-46.9-2.3-73,17.6-80,33.4c-1.1-0.8-2.7-1.3-4.9-1.3c-11.6,0-17.2,2.1-23.8,5.5c-8.8-10.1-23.5-19.7-42.6-19.7c-41.5,0-63.9,29.4-66.2,38.5c-4-4-11.1-6.6-19.1-6.6c-5.8,0-11.1,1.4-15.1,3.7c-10.3-13.2-29.6-25.4-46.1-25.4c-7,0-15.4,2.2-22.8,6c-4.4-16.2-18.6-29-31-33.6C182.5,6.6,167.8,2,146.1,2c-22.6,0-48.4,10.1-62.4,22.6c-6.8-1.2-16.8-1.5-31.5-1.5c-21.8,0-41,16.5-52.3,28.5l0.4,244.1h734.5V51.6z"/></g><g id="line_2"><linearGradient id="cloud1_3_" gradientUnits="userSpaceOnUse" x1="367.1614" y1="295.7223" x2="367.1614" y2="42.1709"><stop  offset="0.3053" style="stop-color:#2D466C"/><stop  offset="1" style="stop-color:#2E394E"/></linearGradient><path id="cloud1_2_" fill="url(#cloud1_3_)" d="M734.5,84c-4.3,0.6-8.6,1.9-12.3,4.1c-3.5,2.1-6.4,5.2-8,9c-5.5-2.3-11.9-3-17.9-3.4c-5.4-0.3-11.3-0.2-15.8,2.4c-0.8-1.7-1.7-3.5-2.5-5.2c-2.2-4.6-4.5-9.3-7.6-13.4c-4.1-5.6-9.5-10.2-15.7-13.2c-8.7-4.3-18.6-5.5-28.3-4.8c-9.6,0.7-19.1,3.3-28.2,6.5c-2,0.7-4,1.4-5.8,2.4c-3.5,1.9-6.5,4.6-9.3,7.5c-4.6,4.6-8.8,9.6-12.6,14.8l0,0c-8.2-10.1-24.9-16.5-46.1-17.6c-12.5-0.6-25,1.9-37,5.3c-1.6,0.5-3.3,1-4.7,1.9c-1.1,0.7-15.3,12.2-15.3,12.2c-6.4-10.1-15.9-18.3-26.9-23.1c-11-4.8-23.4-6.3-35.2-4.2c-11.3,2-21.7,7.1-31.5,13.1c-3,1.9-6,3.8-8.8,6c-5.5,4.2-10.2,9.4-14.1,15.1l0,0c-7-5-23.9-7.1-36.5-0.6c0,0-1.2,1.5-4.1,2.5c-0.5,0.2-1.1,0.3-1.6,0.2c-0.5-0.2-0.8-0.5-1.1-0.9c-7.6-9.2-18-16.1-29.4-19.4c-11.5-3.3-23.9-3.1-35.3,0.7c0,0-14.8-30.6-46.7-37.5c-41.5-9-59.8,15.5-61.7,18.2c-6.6,0.7-12.5,4.2-17.3,8.8c-10.8,10.5-7.1,21.2-8.3,23c-5.9-12.9-23.4-25.3-49-24c-20.1,1-36,17-42.7,21.4C8.1,83.5-0.2,84-0.2,84L0,295.7h734.5V84z"/><g id="XMLID_11_"></g><g id="XMLID_14_"></g><g id="XMLID_18_"></g><g id="XMLID_19_"></g><g id="XMLID_20_"></g><g id="XMLID_21_"></g></g></svg>