<?xml version="1.0" encoding="utf-8"?>
<!-- Generator: Adobe Illustrator 17.1.0, SVG Export Plug-In . SVG Version: 6.00 Build 0)  -->
<!DOCTYPE svg PUBLIC "-//W3C//DTD SVG 1.1//EN" "http://www.w3.org/Graphics/SVG/1.1/DTD/svg11.dtd">
<svg version="1.1" id="Layer_1" xmlns="http://www.w3.org/2000/svg" xmlns:xlink="http://www.w3.org/1999/xlink" x="0px" y="0px"
	 viewBox="0 0 2000 2000" enable-background="new 0 0 2000 2000" xml:space="preserve">
<g id="XMLID_1_">
	
		<ellipse id="XMLID_3_" transform="matrix(9.410130e-002 -0.9956 0.9956 9.410130e-002 -826.327 2571.5029)" fill="#BDBDBD" cx="999.8" cy="1739.8" rx="164.4" ry="1004.3"/>
	<path id="XMLID_4_" fill="#814645" d="M1647.8,237.4l-79-8.1L1362.5,210l-112.8,628.7l-62.9,865.7l72.5,104.8l440.1-61.3
		l140.2-1492.7L1647.8,237.4z"/>
	<polygon id="XMLID_5_" fill="#B95048" points="1647.8,237.4 1560.7,229.3 1505.9,803.2 1593,811.3 1646.2,255.1 1647.8,245.4 	"/>
	<polygon id="XMLID_6_" fill="#C94E49" points="1617.2,234.2 564.5,135.8 561.3,158.4 561.3,158.4 509.7,708.1 1562.3,808 
		1613.9,256.7 1615.5,242.2 	"/>
	<polygon id="XMLID_7_" fill="#8B4946" points="1259.3,840.3 1244.8,1045 1349.6,1054.7 1593,811.3 1270.6,780.6 	"/>
	<polygon id="XMLID_8_" fill="#994C47" points="509.7,708.1 253.4,951.5 1307.6,1049.8 1562.3,808 	"/>
	<polygon id="XMLID_9_" fill="#B95048" points="1244.8,1045 1210.9,1509.3 1380.2,1525.4 1377,1522.2 1341.5,1061.1 1349.6,1054.7 	
		"/>
	<polygon id="XMLID_10_" fill="#C94E49" points="290.5,1423.8 253.4,951.5 1307.6,1049.8 1343.1,1522.2 	"/>
	<polygon id="XMLID_11_" fill="#8B4946" points="1210.9,1509.3 1198,1693 1515.6,1722.1 1380.2,1525.4 	"/>
	<polygon id="XMLID_12_" fill="#994C47" points="1476.9,1720.4 1343.1,1522.2 290.5,1423.8 424.3,1622.1 	"/>
	<polygon id="XMLID_13_" fill="#B95048" points="1196.4,1694.7 1196.4,1705.9 1227,1751.1 1357.6,1764 1514,1739.8 1515.6,1723.7 	
		"/>
	<polygon id="XMLID_14_" fill="#C94E49" points="424.3,1622.1 1476.9,1720.4 1248,1752.7 187.3,1652.7 	"/>
	<polygon id="XMLID_15_" fill="#8B4946" points="1357.6,1764 1227,1751.1 1244.8,1776.9 1259.3,1809.1 1267.3,1809.1 1291.5,1805.9 
		1285.1,1773.6 	"/>
	<polygon id="XMLID_36_" fill="#994C47" points="187.3,1652.7 195.3,1709.2 1259.3,1809.1 1248,1752.7 	"/>
	<path id="XMLID_44_" fill="#4E4A4B" d="M1509.1,554.9c-9.7,106.4-104.8,183.8-211.2,174.1l-530.4-50
		c-106.4-11.3-185.4-104.8-175.7-211.2l6.4-62.9c9.7-106.4,104.8-183.8,211.2-174.1l530.4,50c106.4,9.7,183.8,104.8,174.1,211.2
		L1509.1,554.9z"/>
	<path id="XMLID_45_" fill="#393738" d="M1338.3,335.7l-145.1-12.9l-246.6-22.6l-145.1-14.5c-79-8.1-148.3,50-156.4,129l-4.8,46.7
		c-8.1,79,50,148.3,129,156.4l145.1,14.5l246.6,21l145.1,14.5c79,8.1,148.3-50,156.4-129l4.8-46.7
		C1475.3,413.1,1417.3,343.8,1338.3,335.7z"/>
	<path id="XMLID_46_" fill="#C5DFEB" d="M1462.4,437.3c-4.8-17.7-14.5-35.5-27.4-50L695.1,318c-14.5,11.3-25.8,27.4-35.5,43.5
		l-14.5,154.8c8.1,25.8,22.6,48.4,41.9,64.5l707.7,66.1c22.6-12.9,40.3-32.2,53.2-56.4L1462.4,437.3z"/>
	
		<rect id="XMLID_47_" x="1048.8" y="87.9" transform="matrix(9.409585e-002 -0.9956 0.9956 9.409585e-002 465.0592 1492.8409)" fill="#A2B9C1" width="8.1" height="806"/>
	<path id="XMLID_48_" fill="#6192A4" d="M645.1,516.3c4.8,16.1,12.9,30.6,22.6,43.5l22.6-237c-12.9,11.3-22.6,24.2-30.6,38.7
		L645.1,516.3z"/>
	<path id="XMLID_49_" fill="#6192A4" d="M1417.3,630.7c12.9-11.3,22.6-24.2,30.6-38.7l14.5-154.8c-4.8-16.1-12.9-30.6-22.6-43.5
		L1417.3,630.7z"/>
	
		<rect id="XMLID_50_" x="911.1" y="338.9" transform="matrix(-0.9956 -9.408500e-002 9.408500e-002 -0.9956 1781.9596 1024.6544)" fill="#393738" width="8.1" height="262.8"/>
	
		<rect id="XMLID_51_" x="1181.9" y="364.7" transform="matrix(-0.9956 -9.408500e-002 9.408500e-002 -0.9956 2319.9722 1101.481)" fill="#393738" width="8.1" height="262.8"/>
	<path id="XMLID_52_" fill="#393738" d="M733.8,550.1l1.6-21l24.2,1.6c3.2-22.6,11.3-46.7,22.6-69.3c11.3-24.2,24.2-43.5,35.5-58
		l-59.6-6.4l-1.6,24.2l-22.6-1.6l4.8-46.7l111.2,9.7l-1.6,17.7c-12.9,12.9-25.8,32.2-38.7,59.6c-12.9,27.4-21,51.6-22.6,72.5l21,1.6
		l-1.6,21L733.8,550.1z"/>
	<path id="XMLID_53_" fill="#393738" d="M1001.4,575.9l1.6-21l24.2,1.6c3.2-22.6,11.3-46.7,22.6-69.3c11.3-24.2,24.2-43.5,35.5-58
		l-61.3-6.4l-1.6,24.2l-22.6-1.6l4.8-46.7l111.2,9.7l-1.6,17.7c-12.9,12.9-25.8,32.2-38.7,59.6c-12.9,27.4-21,51.6-22.6,72.5l21,1.6
		l-1.6,21L1001.4,575.9z"/>
	<path id="XMLID_54_" fill="#393738" d="M1267.3,600.1l1.6-21l24.2,1.6c3.2-22.6,11.3-46.7,22.6-69.3c11.3-24.2,24.2-43.5,35.5-58
		l-61.3-6.4l-1.6,24.2l-22.6-1.6l4.8-46.7l111.2,9.7l-1.6,19.3c-12.9,12.9-25.8,32.2-38.7,59.6c-12.9,27.4-21,51.6-22.6,72.5l21,1.6
		l-1.6,21L1267.3,600.1z"/>
	<polygon id="XMLID_55_" fill="#4E4A4B" points="641.9,388.9 630.6,505 691.8,455 	"/>
	<polygon id="XMLID_56_" fill="#4E4A4B" points="1472.1,467.9 1460.8,584 1409.2,522.7 	"/>
	<g>
		<path fill="#6F3F41" d="M1484.9,1220.7L1484.9,1220.7C1484.9,1220.7,1484.9,1220.7,1484.9,1220.7L1484.9,1220.7z"/>
		<path fill="#6F3F41" d="M1491.4,1221.8c2,0.2,3.9,0.3,5.9,0.2l-12.4-1.3C1487,1221.2,1489.2,1221.6,1491.4,1221.8z"/>
		<g>
			<path fill="#6F3F41" d="M1547.2,1194.2c17.1-20.5,29.4-50.9,32.7-85.5c3.6-37.8-4.4-72.5-19.7-96.2l1.2-29.9l-49-1.7
				c-0.8,0-1.6-0.1-2.3-0.1l-0.2,0l0,0c-40.8-0.3-77.9,49.1-84,113.3c-5.9,63,20.2,117.6,59.1,126.6l5.4,0.9l54.4,5.2L1547.2,1194.2
				L1547.2,1194.2z"/>
		</g>
	</g>
	<path id="XMLID_60_" fill="#6F3F41" d="M1435,1149.8c9.7,1.6,6.4,14.5,1.6,22.6c-3.2-6.4-4.8-14.5-6.4-22.6
		C1431.8,1149.8,1433.4,1149.8,1435,1149.8z"/>
	<path id="XMLID_61_" fill="#6F3F41" d="M1433.4,1059.5c6.4,6.4,9.7,14.5,0,22.6c-1.6,1.6-3.2,3.2-4.8,3.2
		C1428.5,1077.2,1430.2,1067.6,1433.4,1059.5z"/>
	
		<ellipse id="XMLID_62_" transform="matrix(9.399129e-002 -0.9956 0.9956 9.399129e-002 306.9849 2546.7185)" fill="#994C47" cx="1552.7" cy="1104.7" rx="122.5" ry="66.1"/>
	<path fill="#393738" d="M1987.9,163.2c0-54.3-44-98.3-98.3-98.3s-98.3,44-98.3,98.3c0,26.5,10.4,50.5,27.4,68.1l-90.3,301
		c-4.6,17.1,1.4,35,13.8,46.9L1610.7,1024l-51.6,40.3c0,0-16.1,12.9-17.7,32.2c-1.6,19.3,4.8,41.9,11.3,37.1l101.6-80.6l137.6-465.4
		c12.2-5.5,22.3-16,26.8-29.5l89.5-298.4C1953.6,251.1,1987.9,211.2,1987.9,163.2z"/>
	<circle id="XMLID_67_" fill="#F9F2C5" cx="1949.2" cy="168.1" r="16.1"/>
	<path id="XMLID_68_" fill="#6F3F41" d="M716,837.1l3.2-32.2l-11.3,8.1c-19.3-25.8-64.5-41.9-116.1-38.7
		c-46.7,3.2-85.4,22.6-103.2,46.7l-8.1-1.6l-1.6,24.2c0,3.2,0,4.8,0,8.1v3.2l0,0l0,0c3.2,38.7,58,67.7,124.1,61.3
		C667.7,911.2,717.6,875.7,716,837.1z"/>
	
		<ellipse id="XMLID_69_" transform="matrix(7.740931e-002 0.997 -0.997 7.740931e-002 1364.5624 153.7122)" fill="#FFFFFF" cx="599.2" cy="814.2" rx="70.9" ry="119.3"/>
	<path id="XMLID_70_" fill="#6F3F41" d="M1028.8,866.1l3.2-32.2l-11.3,8.1c-19.3-25.8-64.5-41.9-116.1-38.7
		c-46.7,3.2-85.4,22.6-103.2,46.7l-8.1-1.6l-1.6,24.2c0,3.2,0,4.8,0,8.1v3.2l0,0l0,0c3.2,38.7,58,67.7,124.1,61.3
		C980.4,941.8,1032,904.8,1028.8,866.1z"/>
	
		<ellipse id="XMLID_71_" transform="matrix(7.742060e-002 0.997 -0.997 7.742060e-002 1682.5884 -132.8567)" fill="#FFFFFF" cx="913.1" cy="842.7" rx="70.9" ry="119.3"/>
	<path id="XMLID_72_" fill="#6F3F41" d="M1356,896.7l3.2-32.2l-11.3,8.1c-19.3-25.8-64.5-41.9-116.1-38.7
		c-46.7,3.2-85.4,22.6-103.2,46.7l-8.1-1.6l-1.6,24.2c0,3.2,0,4.8,0,8.1v3.2l0,0l0,0c3.2,38.7,58,67.7,124.1,61.3
		C1307.6,972.5,1359.2,937,1356,896.7z"/>
	
		<ellipse id="XMLID_73_" transform="matrix(7.740931e-002 0.997 -0.997 7.740931e-002 2015.3562 -430.0094)" fill="#FFFFFF" cx="1240" cy="873.9" rx="70.9" ry="119.3"/>
	<path fill="#393738" d="M572.6,801.6l4.8-6.4h4.8c1.6,0,3.2,0,3.2,1.6v1.6l-1.6,3.2l-1.6,1.6c-1.6,0-3.2,0-4.8,0L572.6,801.6
		 M583.8,791.9l-14.5-1.6l-14.5,21l9.7,1.6l4.8-8.1h4.8c3.2,0,8.1,0,11.3,0s6.4-1.6,6.4-3.2l1.6-3.2c1.6-1.6,0-3.2-1.6-4.8
		C591.9,793.5,588.7,793.5,583.8,791.9 M604.8,809.6l9.7-8.1l-1.6,9.7L604.8,809.6 M624.1,798.4l-12.9-1.6l-24.2,19.3l9.7,1.6
		l4.8-4.8l9.7,1.6l-1.6,4.8l9.7,1.6L624.1,798.4 M664.4,804.8l-9.7-1.6l-11.3,6.4l-1.6-9.7l-9.7-1.6l3.2,14.5l-6.4,9.7l9.7,1.6
		l6.4-9.7L664.4,804.8"/>
	<path fill="#393738" d="M886.9,825.8l4.8-6.4h3.2c1.6,0,3.2,1.6,4.8,1.6v3.2l-1.6,1.6c-1.6,1.6-4.8,1.6-8.1,0L886.9,825.8
		 M893.4,816.1l3.2-4.8h3.2c1.6,0,3.2,0,3.2,1.6v1.6l-1.6,1.6c-1.6,1.6-3.2,1.6-6.4,0L893.4,816.1 M903,808l-12.9-1.6l-14.5,21
		l17.7,3.2c1.6,0,4.8,0,8.1,0c1.6,0,4.8,0,6.4-1.6c1.6,0,3.2-1.6,4.8-3.2v-1.6v-1.6c-1.6-1.6-1.6-1.6-4.8-1.6h3.2
		c3.2,0,4.8-1.6,4.8-3.2v-1.6c0-1.6-1.6-3.2-3.2-3.2C909.5,809.6,906.2,809.6,903,808 M954.6,816.1l-25.8-3.2l-14.5,21l25.8,3.2
		l3.2-3.2l-17.7-1.6l3.2-6.4l12.9,1.6l1.6-3.2l-11.3-1.6l3.2-6.4l17.7,3.2L954.6,816.1 M990.1,820.9l-29-3.2l-1.6,3.2h9.7
		l-12.9,19.3l9.7,1.6l11.3-19.3l9.7,1.6L990.1,820.9 M870.8,856.4c-1.6,0-3.2,0-3.2-1.6v-1.6l8.1-11.3l3.2-1.6c1.6,0,3.2,0,4.8,0
		l3.2,1.6v1.6l-9.7,11.3l-1.6,1.6H870.8 M883.7,837.1c-4.8,0-8.1,0-11.3,0s-6.4,1.6-6.4,3.2l-8.1,11.3c-1.6,1.6,0,3.2,1.6,4.8
		s4.8,1.6,9.7,3.2c4.8,0,8.1,0,11.3,0s6.4-1.6,6.4-3.2l8.1-11.3c1.6-1.6,0-3.2-1.6-4.8C890.1,838.7,886.9,837.1,883.7,837.1
		 M938.5,845.1l-9.7-1.6l-9.7,14.5l-3.2-16.1l-9.7-1.6l-14.5,22.6h9.7l8.1-12.9l4.8,16.1h9.7L938.5,845.1 M972.3,849.9l-25.8-3.2
		l-14.5,21l25.8,4.8l1.6-3.2l-16.1-3.2l3.2-6.4l12.9,3.2l1.6-4.8l-11.3-1.6l3.2-4.8l16.1,1.6L972.3,849.9"/>
	<path fill="#393738" d="M1210.9,856.4l4.8-6.4h3.2c1.6,0,3.2,1.6,4.8,1.6v3.2l-1.6,1.6c-1.6,1.6-4.8,1.6-8.1,0L1210.9,856.4
		 M1217.4,846.7l3.2-4.8h3.2c1.6,0,3.2,0,3.2,1.6v1.6l-1.6,1.6c-1.6,1.6-3.2,1.6-6.4,0L1217.4,846.7 M1227,838.7l-14.5-1.6l-14.5,21
		l17.7,3.2c1.6,0,4.8,0,8.1,0c1.6,0,4.8,0,6.4-1.6c1.6,0,3.2-1.6,4.8-3.2v-1.6v-3.2c-1.6-1.6-1.6-1.6-4.8-1.6h3.2
		c3.2,0,4.8-1.6,4.8-3.2v-1.6c0-1.6-1.6-3.2-3.2-3.2C1233.5,840.3,1230.3,838.7,1227,838.7 M1278.6,845.1l-25.8-3.2l-14.5,21
		l25.8,4.8l1.6-3.2l-16.1-3.2l3.2-4.8l12.9,1.6l1.6-3.2l-11.3-1.6l3.2-6.4l16.1,3.2L1278.6,845.1 M1314.1,851.6l-29-4.8l-3.2,3.2
		l9.7,1.6l-11.3,17.7l9.7,1.6l11.3-17.7l9.7,1.6L1314.1,851.6 M1225.4,869.3l-12.9-1.6l-19.3,14.5l1.6-16.1l-12.9-1.6l-14.5,21
		l9.7,1.6l9.7-14.5v16.1h6.4l17.7-12.9l-9.7,14.5l9.7,1.6L1225.4,869.3 M1236.7,887l9.7-8.1l-3.2,8.1H1236.7 M1256.1,874.1
		l-12.9-1.6l-24.2,19.3l9.7,1.6l4.8-4.8l9.7,1.6l-1.6,6.4l9.7,1.6L1256.1,874.1 M1306,882.2l-9.7-1.6l-11.3,4.8l-3.2-6.4l-9.7-1.6
		l4.8,11.3l-19.3,9.7l9.7,1.6l11.3-6.4l3.2,8.1l9.7,1.6l-4.8-12.9L1306,882.2"/>
	<line id="XMLID_103_" fill="none" x1="709.6" y1="148.7" x2="753.1" y2="153.5"/>
	<line id="XMLID_104_" fill="none" x1="780.5" y1="155.2" x2="753.1" y2="153.5"/>
	<line id="XMLID_105_" fill="none" x1="1549.5" y1="227.7" x2="1593" y2="232.5"/>
	<line id="XMLID_106_" fill="none" x1="1620.4" y1="235.8" x2="1593" y2="232.5"/>
	<line id="XMLID_107_" fill="none" x1="911.1" y1="168.1" x2="954.6" y2="172.9"/>
	<line id="XMLID_108_" fill="none" x1="982" y1="174.5" x2="954.6" y2="172.9"/>
	<line id="XMLID_109_" fill="none" x1="1368.9" y1="211.6" x2="1412.4" y2="214.8"/>
	<line id="XMLID_110_" fill="none" x1="1439.8" y1="218" x2="1412.4" y2="214.8"/>
	<polygon id="XMLID_111_" fill="#6F3F41" points="767.6,1146.6 754.7,1286.8 753.1,1309.4 741.8,1309.4 722.5,1183.6 	"/>
	<polygon id="XMLID_112_" fill="#814645" points="767.6,1146.6 767.6,1146.6 525.8,1124 490.3,1157.8 490.3,1157.8 732.1,1182 	"/>
	<polygon id="XMLID_113_" fill="#994C47" points="737,1182 737,1182 490.3,1157.8 500,1286.8 741.8,1309.4 730.5,1182 	"/>
	<polygon id="XMLID_114_" fill="#6F3F41" points="712.8,1220.7 511.3,1201.4 514.5,1246.5 716,1265.9 	"/>
	<polygon id="XMLID_115_" fill="#814645" points="514.5,1232 514.5,1246.5 716,1265.9 714.4,1249.7 	"/>
	<path fill="#FFFFFF" d="M822.4,1207.8c0,4.8-3.2,8.1-6.4,11.3c-4.8,3.2-9.7,4.8-14.5,3.2c-4.8,0-8.1-3.2-11.3-6.4
		c-3.2-3.2-4.8-8.1-3.2-12.9l3.2-38.7c0-4.8,3.2-8.1,6.4-11.3s8.1-4.8,12.9-3.2c4.8,0,8.1,3.2,11.3,6.4c3.2,3.2,4.8,8.1,3.2,12.9
		v8.1l-11.3-1.6v-8.1c0-1.6,0-3.2-1.6-4.8c0-1.6-1.6-1.6-3.2-1.6c-1.6,0-3.2,0-4.8,1.6c-1.6,1.6-1.6,3.2-1.6,4.8l-3.2,38.7
		c0,1.6,0,3.2,1.6,4.8c1.6,1.6,3.2,1.6,4.8,1.6s3.2,0,4.8-1.6s1.6-3.2,1.6-4.8l1.6-9.7l11.3,1.6L822.4,1207.8z M845,1154.6
		l-11.3-1.6l-6.4,70.9l29,3.2l1.6-11.3l-17.7-1.6L845,1154.6z M875.6,1228.8l-11.3-1.6l19.3-70.9l14.5,1.6l4.8,72.5l-11.3-1.6
		l-1.6-16.1h-9.7L875.6,1228.8z M882.1,1201.4h8.1l-1.6-27.4L882.1,1201.4z M919.4,1160.8l-6.7,70.6l11.2,1.1l6.7-70.6L919.4,1160.8
		z M982,1238.4l8.1-70.9l-16.1-1.6l-14.5,50l-4.8-51.6l-14.5-1.6l-8.1,70.9l11.3,1.6l4.8-45.1l6.4,46.7h8.1l12.9-43.5l-3.2,45.1H982
		z M811.1,1253c3.2,3.2,3.2,8.1,3.2,12.9l-1.6,9.7c0,4.8-3.2,8.1-6.4,11.3s-8.1,4.8-12.9,3.2H787l-3.2,27.4l-11.3-1.6l6.4-70.9
		l21,1.6C804.7,1246.5,809.5,1249.7,811.1,1253z M804.7,1264.2c0-1.6,0-3.2-1.6-4.8c-1.6-1.6-3.2-1.6-4.8-1.6h-6.4l-1.6,22.6h6.4
		c1.6,0,3.2,0,4.8-1.6c1.6-1.6,1.6-3.2,1.6-4.8L804.7,1264.2z M854.7,1257.8c1.6,3.2,3.2,8.1,3.2,12.9l-1.6,9.7
		c0,4.8-3.2,9.7-6.4,12.9l4.8,32.2l-12.9-3.2l-3.2-27.4h-1.6h-6.4l-1.6,27.4l-11.3-1.6l6.4-70.9l17.7,1.6
		C848.2,1251.3,851.4,1254.6,854.7,1257.8z M846.6,1269.1c0-4.8-1.6-6.4-4.8-6.4h-6.4l-1.6,22.6h6.4c1.6,0,3.2,0,4.8-1.6
		c1.6-1.6,1.6-3.2,1.6-4.8V1269.1z M862.6,1324.8l11.2,1.1l6.7-70.6l-11.2-1.1L862.6,1324.8z M888.5,1265.9l21,1.6l-25.8,48.4v11.3
		l30.6,3.2l1.6-11.3l-21-1.6l25.8-48.4v-11.3l-30.6-3.2L888.5,1265.9z M924,1330.3l30.6,3.2v-11.3l-19.3-1.6l1.6-19.3l14.5,1.6
		l1.6-11.3l-14.5-1.6l1.6-19.3l19.3,1.6l1.6-9.7l-30.6-3.2L924,1330.3z M1004.6,1296.5l-12.9-1.6l1.6-29l-9.7-1.6l-6.4,70.9l9.7,1.6
		l3.2-30.6l12.9,1.6l-3.2,30.6h11.3l6.4-70.9l-11.3-1.6L1004.6,1296.5z M1020.7,1340l30.6,3.2l1.6-11.3l-21-1.6l1.6-19.3l14.5,1.6
		l1.6-11.3l-14.5-1.6l1.6-19.3l19.3,1.6l1.6-11.3l-30.6-1.6L1020.7,1340z M1094.9,1280.4c1.6,3.2,3.2,8.1,3.2,12.9l-1.6,9.7
		c0,4.8-3.2,9.7-6.4,12.9l4.8,32.2l-11.3-1.6l-3.2-27.4h-1.6h-6.4l-3.2,27.4l-11.3-1.6l6.4-70.9l17.7,0
		C1088.4,1273.9,1091.6,1277.1,1094.9,1280.4z M1086.8,1291.6c0-4.8-1.6-6.4-4.8-6.4h-6.4l-3.2,21h6.4c1.6,0,3.2,0,4.8-1.6
		c1.6-1.6,1.6-3.2,1.6-4.8L1086.8,1291.6z M1140,1290l1.6-11.3l-30.6-3.2l-6.4,72.5l30.6,3.2V1340l-19.3-1.6l1.6-19.3h14.5l1.6-9.7
		l-14.5-1.6l1.6-19.3L1140,1290z"/>
</g>
</svg>
