<svg xmlns="http://www.w3.org/2000/svg" viewBox="0 0 431.77 668.27"><defs><style>.cls-1{fill:#fef8a6;}.cls-2{fill:#f47b50;}.cls-3{fill:#00a99d;}.cls-4{fill:#a554a4;}.cls-5{fill:#66cbc4;}.cls-6{fill:#007f76;}.cls-7{fill:#532a52;}.cls-8{fill:#a3e0dc;}.cls-10,.cls-9{fill:#fff;}.cls-9{opacity:0.5;}.cls-10{opacity:0.2;}.cls-11{fill:#b776b6;}</style></defs><title>Ресурс 1</title><g id="Слой_2" data-name="Слой 2"><g id="Objects"><path class="cls-1" d="M59.45,552c1.6-2.1,3.32-4.26,5.16-6.43,0,0-23.81,22.46-42.27,22.69,0,0,36.83-21,45.26-65.52,0,0-16,2.51-24.25,15.64C27.26,544,21.11,537.94,8.18,540.9c0,0,27.34-11,36.31-47.48,8.38-34,38.59-53.25,47.78-54.88,0,0-21.91-7.3-46,21.23,0,0,18-30.82,32.62-32s29.45-14.16,38.6-17.84c12.79-5.16,59.26-5.72,62.81,63.88,0,0,3.58,37.14-23.55,77.32s-44.32,36.74-50.94,109.73c0,0-7.22-30.1,11.54-97.36,0,0-10.78,25-36.22,33.64s-60.56,24.27-62,65c-5.58-18.19,1.46-40.75,25.07-85.62A143.73,143.73,0,0,1,59.45,552"/><path class="cls-2" d="M174.92,459.72s2.19,22.71-14.4,47.29-27.12,22.47-31.16,67.12c0,0-4.42-18.42,7-59.56,0,0-6.59,15.3-22.15,20.58s-37,14.84-37.93,39.77c-3.42-11.12.89-24.93,15.33-52.37a91.47,91.47,0,0,1,12.48-18.94s-14.57,13.73-25.86,13.88c0,0,22.53-12.83,27.68-40.08,0,0-9.79,1.54-14.83,9.57-9.84,15.66-13.6,12-21.51,13.79,0,0,16.72-6.74,22.21-29,5.12-20.82,23.6-32.57,29.22-33.56,0,0-13.4-4.47-28.11,13,0,0,11-18.85,20-19.59s18-8.66,23.61-10.92C144.33,417.49,172.75,417.15,174.92,459.72Z"/><path class="cls-3" d="M133.4,479.62c19.42,27.74,41.09,40.88,48.4,29.35a12.46,12.46,0,0,0,.67-1.2s111.73-161,148-216.07C358.4,249.39,387,151.84,377.42,85.56l.07.11C332.9,74.5,269.38,122.21,242.59,166.1,207.71,223.22,106,398.59,106,398.59a9.48,9.48,0,0,0-.77,1.05c-7.31,11.53,2.5,43.36,21.92,71.1Z"/><path class="cls-4" d="M377.49,85.67l-.06,0a.28.28,0,0,1,0-.09Z"/><path class="cls-4" d="M377.43,85.65c9.58,66.28-19,163.76-46.92,206.05-3.15,4.77-6.86,10.34-11,16.52-13.34,19.27-21.87,31.57-21.87,31.57-.23.47-.48.92-.74,1.34-8.18,12.89-32.4-1.81-54.11-32.82l-6.94-9.92c-21.71-31-32.68-66.59-24.5-79.48a10.32,10.32,0,0,1,.85-1.17s7.78-13.41,19.95-34.35c3.91-6.52,7.43-12.35,10.45-17.29C269.37,122.23,332.84,74.55,377.43,85.65Z"/><path class="cls-4" d="M377.49,85.67l-.06,0a.28.28,0,0,1,0-.09Z"/><polygon class="cls-5" points="183.85 265.23 79.41 319.03 0 444.19 106.04 398.59 183.85 265.23"/><polygon class="cls-5" points="266.85 383.79 236.26 543.11 156.85 668.27 181.95 507.03 266.85 383.79"/><polygon class="cls-6" points="170.35 448.95 225.63 324.92 225.63 324.92 145.78 413.86 78.66 556.57 170.35 448.95"/><path class="cls-7" d="M240.71,222.39c-12.79,20.16-12.06,52.35,1.63,71.9s35.15,19.07,47.93-1.09,12.06-52.34-1.63-71.9S253.49,202.24,240.71,222.39Z"/><path class="cls-8" d="M246.88,231.21c-9.6,15.13-9.06,39.31,1.22,54s26.4,14.32,36-.81,9-39.31-1.22-54S256.48,216.07,246.88,231.21Z"/><path class="cls-9" d="M278.77,255.24a9.39,9.39,0,0,0,.22,9.65c1.83,2.62,4.71,2.56,6.43-.15a9.39,9.39,0,0,0-.22-9.65C283.36,252.47,280.48,252.53,278.77,255.24Z"/><path class="cls-10" d="M259.14,248.73c-3.27,5.16-3.08,13.4.42,18.41s9,4.88,12.28-.28,3.08-13.4-.42-18.41S262.42,243.57,259.14,248.73Z"/><path class="cls-4" d="M431.77.1h-.06a.28.28,0,0,0,0-.09Z"/><path class="cls-11" d="M377.43,85.65c7.59,52.52-8.8,124.62-29.81,173.34-10.33,5.74-31.41-8.9-50.55-36.24l-6.95-9.92c-19.13-27.34-29.92-58.23-26.6-74C294.91,105,342.1,76.85,377.43,85.65Z"/></g></g></svg>