<?xml version="1.0" encoding="utf-8"?>
<!-- Generator: Adobe Illustrator 22.1.0, SVG Export Plug-In . SVG Version: 6.00 Build 0)  -->
<svg version="1.1" id="Слой_1" xmlns="http://www.w3.org/2000/svg" xmlns:xlink="http://www.w3.org/1999/xlink" x="0px" y="0px"
	 viewBox="0 0 353.6 327" style="enable-background:new 0 0 353.6 327;" xml:space="preserve">
<style type="text/css">
	.st0{fill:url(#SVGID_1_);}
	.st1{fill:#E7AE5E;}
	.st2{fill:#F47E14;}
</style>
<title>SUN</title>
<g>
	<g id="Слой_1_1_">
		
			<radialGradient id="SVGID_1_" cx="241.0548" cy="748.9756" r="171.69" gradientTransform="matrix(1.35 0 0 1.35 -154.1 -842.2401)" gradientUnits="userSpaceOnUse">
			<stop  offset="0" style="stop-color:#FAED36"/>
			<stop  offset="0.18" style="stop-color:#F9EB36"/>
			<stop  offset="0.28" style="stop-color:#F7E338"/>
			<stop  offset="0.35" style="stop-color:#F2D63B"/>
			<stop  offset="0.41" style="stop-color:#ECC33E"/>
			<stop  offset="0.47" style="stop-color:#E4AA43"/>
			<stop  offset="0.52" style="stop-color:#DA8C49"/>
			<stop  offset="0.54" style="stop-color:#D57C4C"/>
			<stop  offset="0.63" style="stop-color:#D36E46"/>
			<stop  offset="0.81" style="stop-color:#CF4936"/>
			<stop  offset="0.94" style="stop-color:#CB2828"/>
		</radialGradient>
		<path class="st0" d="M326.8,152.7c-6.2,2.9-12.6,5.3-18,9.6c-4.5,3.5-5.2,8,0.1,11c4.8,2.7,11,3,16.2,3.5
			c-1.9,0.6-3.9,1.1-5.8,1.7c-5.3,1.7-10.4,3.7-15.4,6.1c-3.8,1.8-8.4,3.9-10.9,7.4c-3.5,5.1,4.4,11.5,9.1,14.9
			c-1.8,0.3-3.7,0.7-5.5,1.2c-5.8,1.4-11.4,4.3-12.1,10.8c-1,8.9,3.4,16.4,8.7,23.1c0.8,1.1,1.7,2.1,2.6,3.2
			c-2.6-0.1-5.3-0.3-7.8-0.5c-4.4-0.4-9.2-0.7-11.6,3.6c-3.1,5.5,1.2,14.7,3.5,19.7c1.1,2.4,2.3,4.8,3.6,7.2l-0.1-0.1
			c-2-0.9-3.9-2.2-5.9-3.2c-2.2-1-4.6-1.4-6.8-2.4c-2.6-1.2-6.1-2.3-8.7-0.8c-2,1.2-1.8,3.9-1.8,5.9c0.1,4.8,2.3,10.1,3.4,14.9
			c0.3,1.6,0.7,3.3,1.1,5c-2.8-1.8-5.9-3.5-8.8-5.1c-4.5-2.6-9.2-4.8-14.1-6.5c-5.5-1.8-9.1,1.6-10.7,6.7c-2.1,7.1-0.8,15.1,1,22.5
			c-3.8-4.3-8-8.4-11.8-12.7c-4.4-4.9-11.1-11.5-18.3-8.9c-6.6,2.4-8.3,9.3-9.3,15.6c-0.3,1.7-0.5,3.5-0.7,5.2
			c-3.3-6.3-7.8-12-14.2-13.3c-5.3-1-10.6,4.2-13,8.3c-1,1.7-2.9,10.8-3.7,12.7c-0.7-2.8-0.6-12.8-1.5-15.5
			c-1.6-4.9-3.9-6.5-9.5-7.8c-7.4-1.8-16.4,15.5-19.6,23.3c0.1-1.4,4.9-13.4,5-14.8c0.2-3.7,0.8-9.2-2.1-12.1
			c-1.4-1.4-3.4-0.3-5.7,2.1c0-1.9-0.1-3.8-0.5-5.6c-1-4.8-4-9-9-5.8c-2.3,1.5-4.2,4.1-6.1,6.1c-2.2,2.2-10.3,17.5-12.2,20
			c1.1-3.8,8.3-21.4,6.9-25c-0.9-2.3-15.3,13.1-16.9,14c0.5-2.8,13.4-20.9,12.9-23.6c-1.6-9.8-11-6-16.6-2
			c-5.8,4.2-23.7,22.4-28.8,27.8c4.8-8.6,21.9-30.6,24.5-40c0.9-3.1,1.8-7,0.4-10.1c-1.8-4.1-7.3-2.9-10.7-1.8
			c-8.8,2.9-17.3,9.2-24.6,15c2.5-2.6,5-5.3,7.3-8.1c4.4-5.1,8-10.9,10.5-17.2c1.1-2.8,1.6-5.6-0.8-7.8c-4.5-4.2-14.8-1.7-20.1-0.7
			c-5.6,1-11.4,1.5-17.1,2.4c2.4-0.9,4.7-1.9,7.1-3c5.2-2.6,10.3-5.6,15.1-8.9c2.8-1.8,6.4-4.4,5.1-8.1c-1-3-5.3-4.6-8-5.7
			c-5.4-2.1-11.1-3.8-16.7-5.5c-6.3-2-12.7-3.9-19.3-5.5c3.5-0.3,7-0.7,10.4-1.5c2.2-0.5,9.6-2,6.9-5.8c-2.4-3.3-8.6-4.4-12.2-5.4
			c-3.1-0.9-6.2-1.9-9.3-2.8c9.1-0.3,18.2-1.6,27-3.9c4.7-1.3,19.5-5.8,12.7-13c-4.8-5.1-12.4-7.9-18.9-10.3
			c-3.5-1.3-6.9-2.7-10.3-4.1c1.5-0.1,3.1-0.2,4.6-0.4c6.2-0.6,18.2-1.7,21.4-8.3c1.4-2.9-11.8-8.6-25.2-13.3
			c5.3,0.3,10.5,0,15.7-0.8c4.1-0.7,9.1-1.3,13-3c2.2-0.9,6.4-3.2,6.1-6.2c-0.8-7.4-11.8-10.2-17.5-12.6c-2.1-0.9-4.1-1.8-6.2-2.7
			c5,0.8,10,1.2,15.1,1.3c5.8,0,11.5-1,17-2.8c2-0.6,4.6-1.3,4.6-4c0-3-3.4-5.1-5.4-6.7c-4.7-3.8-9.3-7.7-13.9-11.6
			c-1.6-1.3-3.1-2.7-4.7-4.1c4.5,2.5,9.2,4.6,14,6.4c4.9,1.9,10.6,3.2,15.9,2.7c2.7-0.3,8.8-0.5,9.6-4.2c1.2-5.3-0.9-11.2-3.8-16.8
			c1.9,1.7,4.7,4,6.8,3.2c5.3-2-2-14.6-3.2-17.4c-0.7-1.8-1.5-3.6-2.2-5.3c4,6.6,8.9,12.5,14.6,17.7c2.9,2.6,9.6,8.4,11.7,1.6
			c1.9-6-0.6-13.9-1.5-19.9c-0.4-2.4-0.7-4.9-1.1-7.4c1.9,2.6,4,5.2,6.1,7.6c2.9,3.2,12,12.4,16,5.6c2.8-4.9,2-11.5,1.9-16.9
			c-0.1-3.8-0.5-7.6-0.9-11.3c1.8,3.3,3.5,6.7,5.1,10.1c2.2,4.5,4.5,8.9,7,13.3c0.7,1.4,1.7,2.6,3,3.6c1.9,1.8,4.1,2.7,6.5,0.6
			c3.9-3.3,5.5-8.9,6.6-14.3c0.1,0.3,0.2,0.6,0.3,0.8c0.9,2.7,3.7,8.9,7,5.4c2.8-2.9,2.8-8.9,3.4-12.6c1-6,2.5-12.2,3.3-18.4
			c1,7.6,1.1,15.4,2.6,22.9c0.6,3,4.8,15,9.7,13.1c2.4-0.9,3.7-3.3,4.9-5.5c2.1-3.7,4.2-7.4,6.3-11c0.3-0.5,0.6-1.1,0.9-1.6
			c-0.1,2-0.1,4,0.2,6c0.5,4,0,12,6,7.9c3.2-2.2,5.6-6.1,7.8-9.2c2-3,4.1-5.9,6.2-8.9c-1.1,4.4-2.2,8.9-2.9,13.4
			c-0.7,4.2-1.7,8.6,0.6,12.4c2,3.3,7,4.2,10.4,4.3c4.7,0.1,9-2.3,13.1-4.4c5.2-2.9,10.2-6.2,14.9-9.8c4.1-3,8.3-5.9,12.5-8.8
			c-3.9,6.4-7.7,12.8-11,19.4c-3,6-5.4,15.1,3.1,17.5c4.4,1.2,9.8,0.2,14.9-1.4c-0.9,0.9-1.4,2.1-1.1,3.4c1.1,4.7,12.8-0.5,15.1-1.2
			c4.2-1.3,8.3-2.7,12.5-4.2c-6.7,4.4-13.2,9.1-18.4,15.1c-3.8,4.4-9.4,13.8-0.3,15.6c10.3,2.1,22.2-0.5,32.4-2.2
			c3-0.5,6.1-1.1,9.2-1.7l-0.2,0.1c-7,5.4-14.7,12-18.9,19.9c-5.9,11.1,13,11.4,28.1,10c-1.8,1.3-3.6,2.5-5.4,3.8
			c-5.2,3.6-10.6,6.9-15.4,11c-4.3,3.6-10.1,10.5-2.2,13.6c8.8,3.4,20.6,0.6,29.4-1c4.5-0.8,9-1.9,13.6-2.8
			C339.2,146.7,333.1,149.9,326.8,152.7z"/>
		<path class="st1" d="M129,327l0.8-7.6c0.6-2.4,1.4-4.8,2.4-7.1c1.1-2.9,2.5-6.9,2.6-7.6v-1c0.2-3.4,0.5-8-1.8-10.3
			c-0.2-0.2-0.4-0.3-0.6-0.3c-0.5,0-1.5,0.3-3.5,2.4l-1.9,2v-2.8c0-1.8-0.1-3.6-0.5-5.4c-0.3-1.4-1.5-6-4.6-6c-1,0.1-1.9,0.4-2.7,1
			c-1.6,1.2-3,2.5-4.2,4c-0.6,0.7-1.2,1.3-1.7,1.9c-1.2,1.2-4.6,7.2-7.3,11.9c-2.1,3.7-3.9,6.9-4.8,8l-3.5,4.7l1.6-5.7
			c0.3-1,0.9-2.7,1.7-4.9c1.9-5.1,5.5-15.3,5.3-18.7c-2.1,1.2-7.9,6.8-10.8,9.6c-1.5,1.6-3.1,3-4.8,4.3l-2,1.2l0.4-2.3
			c0.2-1.4,2.4-4.8,5.8-10.4c2.8-4.6,7.1-11.5,7.1-12.8c-0.6-3.5-2.3-5.3-5.2-5.3c-2.7,0-6.3,1.5-9.8,4
			c-5.8,4.2-23.7,22.4-28.6,27.7l-6.1,6.6l4.4-7.9c1.7-3,4.8-7.6,8.4-12.8c6.4-9.4,14.3-21,16-27c0.9-3.2,1.6-6.7,0.5-9.4
			s-4.3-2.9-9.3-1.2c-8.7,2.9-17.1,9.2-24.3,14.8l-1.5-1.6c2.7-2.8,5.1-5.4,7.3-8c4.3-5,7.8-10.7,10.3-16.9c1.2-3.2,1.1-5.1-0.5-6.6
			s-3.9-2.1-7.3-2.1c-3.5,0.1-6.9,0.6-10.3,1.3l-1.6,0.3c-3.3,0.6-6.7,1-10,1.5c-2.4,0.3-4.8,0.6-7.1,1l-9.7,1.5l9.2-3.6
			c2.6-1,4.9-2,7-3c4.5-2.2,8.8-4.7,12.9-7.5l2-1.3c3-1.9,5.6-4,4.7-6.8c-0.8-2.4-4.6-3.9-7-4.9l-0.3-0.1c-4.4-1.8-9.2-3.2-13.7-4.6
			l-2.9-0.9c-6.8-2.1-13.1-3.9-19.2-5.3l-6.6-1.6l6.8-0.6c3.4-0.3,6.9-0.7,10.2-1.4h0.2c3.8-0.8,5.9-1.8,6.3-2.8
			c0-0.1,0.2-0.5-0.4-1.3c-1.8-2.4-6.4-3.6-9.8-4.5l-1.8-0.5c-2.4-0.7-4.8-1.4-7.1-2.2L0,179.6l6.2-0.3c9-0.3,18-1.6,26.7-3.8
			c7.9-2.1,12.8-4.9,13.5-7.6c0.3-1.1-0.1-2.3-1.4-3.6c-4.5-4.8-11.5-7.4-17.8-9.8l-0.7-0.3c-3.7-1.4-7.3-2.8-10.4-4.1l-4.3-1.8
			l6-0.5c1.1-0.1,2.1-0.2,3.2-0.3h0.2c6.1-0.6,17.4-1.7,20.3-7.7c0-1.1-5.1-5-24.6-11.7l-6.7-2.4l7.1,0.2c1.4,0,2.8,0.1,4.3,0.1
			c3.8,0,7.5-0.2,11.2-0.8l2.1-0.4c3.6-0.5,7.2-1.3,10.6-2.5c2.8-1.2,5.6-3.1,5.4-5.1c-0.6-5.5-8.2-8.4-13.8-10.5
			c-1.1-0.4-2.1-0.8-3-1.2c-1.8-0.7-3.5-1.5-5.3-2.3l-8.5-3.8l8.1,1.2c4.9,0.8,9.8,1.2,14.7,1.3h0.2c5.6,0,11.2-1,16.6-2.7l0.3-0.1
			c2.2-0.7,3.5-1.3,3.5-2.9c0-2.1-2.3-3.8-4.1-5.2l-0.9-0.7c-4.3-3.4-8.6-7-12.7-10.6l-1.2-1.1c-1.6-1.3-3.1-2.7-4.7-4.1l-6.6-6
			l7.8,4.2c4.5,2.5,9.1,4.6,13.8,6.5c5.7,2.1,10.7,3,15.4,2.6l0.6-0.1c2.6-0.2,7.4-0.6,8-3.3c0.9-4.2-0.2-9.3-3.7-16.1l-2.6-5.1
			l4.3,3.8c1.2,1,4.2,3.6,5.6,3c0.5-0.2,0.8-0.5,1-1c1.1-2.9-2.3-9.8-3.9-13.1c-0.4-0.8-0.7-1.5-0.9-2c-0.7-1.7-1.5-3.5-2.2-5.3
			l1.9-1c4,6.5,8.8,12.4,14.5,17.5c3.3,3,5.8,4.5,7.5,4.5c0.7,0,1.8-0.3,2.4-2.4c1.4-4.4,0.2-10.1-0.8-15.1c-0.3-1.5-0.6-3-0.8-4.3
			l-1.8-11.9l2.6,3.6c2,2.7,4,5.2,6.1,7.5c1.6,1.8,7.2,7.7,11.2,7.7c1.3,0,2.5-0.7,3-1.9c2.3-4,2-9.4,1.8-14.2
			c0-0.7-0.1-1.4-0.1-2.1c-0.1-3.9-0.5-7.7-0.9-11.3l-0.6-5.7l2.6,5.1c1.8,3.4,3.5,6.7,5.2,10.1c2.5,5.1,4.7,9.3,7,13.2
			c0.6,1.3,1.5,2.3,2.7,3.2c2.1,2,3.5,2.1,5.2,0.7c3.6-3,5.1-8.4,6.2-13.7l0.9-4.1l1.5,4.8c0.9,2.8,2.6,5.7,4,5.7
			c0.5-0.1,0.9-0.3,1.2-0.7c1.9-2,2.4-6.1,2.8-9.4c0.1-0.9,0.2-1.8,0.3-2.6c0.4-2.6,1-5.3,1.5-8c0.7-3.4,1.4-6.9,1.9-10.4l1.1-7.8
			l1.1,7.8c0.4,3.1,0.7,6.3,0.9,9.3c0.3,4.5,0.8,9,1.7,13.5c0.8,3.8,4.4,12.4,7.5,12.4c0.2,0,0.4,0,0.7-0.1c2-0.8,3.2-2.9,4.4-5
			c2.1-3.7,4.2-7.4,6.3-11.1l3.2-5.5l-0.2,4.4c-0.1,2-0.1,3.9,0.2,5.9c0.1,0.6,0.1,1.3,0.2,2.1c0.2,2.4,0.5,6,1.9,6
			c0.8-0.1,1.6-0.4,2.2-0.9c2.6-1.8,4.7-4.9,6.6-7.7l2.8-4.1c1.4-2,2.8-4,4.2-6l3.4-4.8l-1.4,5.7c-1,3.9-2.1,8.6-2.8,13.3l-0.2,1.3
			c-0.6,3.6-1.2,7.3,0.6,10.4c1.6,2.6,6,3.6,9.5,3.7h0.3c4.3,0,8.3-2.1,12.1-4.2c5.2-2.9,10.2-6.2,14.9-9.8
			c4.3-3.2,8.8-6.2,12.5-8.8L264,25l-2.7,4.4c-3.7,6.1-7.6,12.6-11,19.3c-1.2,2.4-3.8,8.5-2.1,12.4c0.9,1.8,2.5,3.1,4.5,3.5
			c3.5,1,7.9,0.6,14.3-1.4l3.7-1.1l-2.5,2.9c-0.7,0.6-1,1.5-0.9,2.4c0.1,0.3,0.3,1.1,2.3,1.1c3,0,7.4-1.7,9.8-2.6
			c0.7-0.3,1.2-0.5,1.5-0.6c3.8-1.2,7.9-2.6,12.5-4.2L302,58l-7.7,5c-6.3,4.2-13,8.8-18.2,14.9c-3,3.4-5.7,8.4-4.7,11.3
			c0.5,1.3,1.7,2.2,3.8,2.6c2.7,0.5,5.5,0.8,8.2,0.8c6.7,0,13.6-1.2,20.3-2.4l3.4-0.6c3-0.5,6.1-1.1,9.2-1.7l4.2-0.8L317,90
			c-7.3,5.7-14.7,12.1-18.7,19.6c-1.1,2.1-1.3,3.7-0.5,5c1.1,1.8,4.8,4,16.2,4c3.4,0,7.2-0.2,11.4-0.6l4.1-0.4l-4.7,3.3
			c-1.3,0.9-2.7,1.9-4,2.8s-2.8,1.9-4.3,2.9c-3.9,2.5-7.6,5.2-11.1,8.1c-3,2.6-6.1,6.2-5.7,8.8c0.2,1.2,1.3,2.2,3.2,2.9
			c3.1,1.1,6.3,1.6,9.5,1.5c5.4,0,11.2-1.1,16.3-2c1-0.2,2-0.4,3-0.6c2.8-0.5,5.7-1.1,8.5-1.7c1.7-0.4,3.4-0.7,5.1-1.1l8.3-1.7
			l-12.5,6.1c-4.5,2.2-9.2,4.5-13.8,6.7c-1.1,0.5-2.3,1-3.4,1.5c-5,2.2-10.1,4.5-14.4,8c-2.2,1.7-3.3,3.6-3.2,5.3
			c0.1,1.8,1.8,3.1,3.2,3.9c4,2.3,9.4,2.8,14.1,3.2l7.3,0.7l-5.5,1.5c-1.9,0.6-3.8,1.1-5.8,1.7c-5.2,1.7-10.3,3.7-15.2,6.1l-0.9,0.5
			c-3.5,1.7-7.5,3.6-9.6,6.6s0.8,7.5,8.9,13.4l2,1.5l-2.5,0.5c-1.8,0.3-3.6,0.7-5.4,1.2c-7.1,1.7-10.8,4.9-11.3,9.9
			c-1,9,4,16.7,8.5,22.4c0.8,1.1,1.7,2.1,2.6,3.1l1.7,2l-5-0.3c-1.8-0.1-3.6-0.2-5.4-0.3c-1.2-0.1-2.4-0.2-3.6-0.2
			c-3.6,0-5.7,1-7,3.3c-2.7,4.9,1.2,13.7,3.4,18.4l0.2,0.4c1.1,2.4,2.4,4.8,3.6,7.1l1.5,2.9l-3-1.4c-1.2-0.6-2.3-1.2-3.3-1.7
			c-1-0.6-1.8-1-2.7-1.5c-1.1-0.5-2.2-0.9-3.3-1.2c-1.1-0.3-2.3-0.7-3.3-1.2c-3.4-1.6-6-1.9-7.7-0.8c-1.3,0.7-1.3,2.3-1.2,4.5v0.4
			c0.3,3.3,0.9,6.5,2,9.6c0.5,1.7,1,3.4,1.4,5.1c0.4,1.6,0.7,3.3,1.1,4.9l0.6,2.6l-2.3-1.5c-2.3-1.5-4.8-2.8-7.1-4.2l-1.6-0.9
			c-4.4-2.6-9-4.8-13.9-6.4c-0.8-0.3-1.6-0.4-2.5-0.4c-4.2,0-6.1,4-6.8,6.4c-2.1,7-0.7,15,1,22l1,4.3l-2.9-3.3
			c-2-2.3-4.2-4.6-6.3-6.8c-1.8-1.9-3.7-3.9-5.5-5.8c-3.8-4.2-8.8-9.1-14.2-9.1c-1,0-2,0.2-3,0.5c-6.1,2.2-7.6,8.8-8.5,14.7
			c-0.3,1.7-0.5,3.5-0.7,5.2l-0.4,3.6l-1.7-3.2c-3.9-7.5-8.3-11.7-13.5-12.7c-4.9-1-9.8,4.4-11.8,7.8c-0.9,2.4-1.6,4.8-2.1,7.2
			c-0.6,2.4-1.1,4.5-1.5,5.4l-1.2,3.1l-0.8-3.2c-0.4-2.5-0.6-5-0.7-7.5c0-2.6-0.3-5.3-0.8-7.9c-1.5-4.4-3.3-5.9-8.7-7.1
			c-6-1.4-14.4,13.1-18.4,22.6L129,327z M149.5,295c0.4,0,0.9,0.1,1.3,0.2c6.1,1.4,8.5,3.4,10.2,8.6c0.5,1.5,0.7,4.9,0.9,8.5
			c0,0.5,0,1,0.1,1.4c0.5-2.5,1.3-5,2.2-7.4c2.5-4.3,7.4-9,12.5-9c0.5,0,1.1,0.1,1.6,0.2c5.1,1,9.5,4.6,13.3,10.9
			c0.1-0.6,0.2-1.3,0.3-2c1.1-7.1,3.1-14,10-16.5c1.2-0.4,2.4-0.7,3.7-0.7c6.2,0,11.7,5.2,15.8,9.8c1.8,1.9,3.6,3.9,5.4,5.8
			c1.2,1.3,2.4,2.5,3.6,3.8c-1.2-6.2-1.9-12.9-0.1-19s6.5-9.2,12-7.4c5,1.7,9.8,3.9,14.3,6.6l1.5,0.9c1.6,0.9,3.3,1.9,5,2.8
			c-0.2-0.8-0.4-1.6-0.5-2.4c-0.3-1.6-0.8-3.2-1.3-4.9c-1.1-3.3-1.8-6.7-2.1-10.1v-0.4c-0.1-2.1-0.2-5,2.3-6.4s5.6-1.2,9.7,0.8
			c1,0.4,2.1,0.8,3.2,1.1c1.2,0.3,2.4,0.8,3.6,1.3c1,0.5,1.9,1,2.9,1.5h0.1c-0.7-1.3-1.4-2.7-2-4.1l-0.2-0.4
			c-2.5-5.4-6.5-14.5-3.3-20.3c2.2-4,6.1-4.4,8.9-4.4c1.3,0,2.6,0.1,3.8,0.2c1.7,0.1,3.4,0.2,5.2,0.3l-1-1.3
			c-4.7-6-10-14.1-8.9-23.9c0.6-5.9,5-9.8,13-11.8c1-0.3,2.1-0.5,3.1-0.7c-4.4-3.4-11.2-9.5-7.4-15c2.4-3.5,6.7-5.6,10.4-7.4
			l0.9-0.4c5-2.5,10.2-4.5,15.5-6.2l0.5-0.2c-3.9-0.5-7.8-1.2-11.2-3.1s-4.2-4.1-4.3-5.6c-0.2-2.4,1.2-5,4-7.1
			c4.5-3.6,9.8-6,14.9-8.2c1.1-0.5,2.3-1,3.4-1.5c3.6-1.7,7.2-3.4,10.8-5.1c-1.7,0.3-3.4,0.7-5.1,1l-3,0.6c-5.2,1-11,2.1-16.7,2.1
			c-3.5,0.1-7-0.5-10.3-1.7c-2.7-1-4.2-2.6-4.5-4.6c-0.7-4.3,4.3-9,6.5-10.8c3.6-2.9,7.4-5.7,11.3-8.2c1.4-0.9,2.8-1.9,4.2-2.9
			l2.1-1.5c-2.7,0.2-5.3,0.3-7.6,0.3c-10.1,0-16-1.7-18-5.1c-1.2-2-1-4.4,0.5-7.1c3.6-6.7,9.6-12.4,15.9-17.6
			c-1.6,0.3-3.2,0.6-4.8,0.9l-3.4,0.6c-6.5,1.1-13.8,2.4-20.7,2.4c-2.9,0-5.8-0.2-8.7-0.8c-2.9-0.6-4.7-1.9-5.4-4
			c-1.7-5.1,4-12.1,5.2-13.4c3.6-4,7.6-7.6,12-10.7c-1.7,0.6-3.3,1.1-4.9,1.6c-0.3,0.1-0.8,0.3-1.4,0.5c-2.7,1-7.2,2.7-10.5,2.7
			c-3.1,0-4.2-1.5-4.5-2.8c-0.1-0.6-0.1-1.3,0-1.9c-5.5,1.4-9.6,1.6-13,0.7c-2.6-0.6-4.8-2.3-5.9-4.7c-2-4.7,0.5-11,2.1-14.3
			c2.6-5.2,5.5-10.3,8.4-15.1c-2.7,1.9-5.5,3.8-8.3,5.9c-4.8,3.6-9.8,6.9-15,9.8c-4,2.1-8.5,4.5-13.3,4.5H220
			c-2-0.1-8.8-0.5-11.4-4.8c-2.3-3.8-1.5-8.1-0.9-11.9l0.2-1.3c0.4-2.7,1-5.3,1.5-7.8l-0.9,1.3l-2.8,4.1c-2,2.9-4.3,6.2-7.2,8.2
			c-1,0.8-2.2,1.2-3.4,1.3c-3.5,0-3.8-4.6-4.1-8c0-0.7-0.1-1.4-0.2-2s-0.2-1.4-0.2-2.1c-1.8,3-3.5,6.1-5.2,9.1
			c-1.3,2.3-2.7,4.9-5.5,5.9c-0.5,0.2-1,0.3-1.5,0.3c-5.5,0-9.2-12-9.7-14.2c-0.8-4.6-1.4-9.2-1.7-13.8c0-0.4-0.1-0.9-0.1-1.3
			c-0.2,0.9-0.3,1.8-0.5,2.7c-0.5,2.6-1,5.3-1.5,7.9c-0.1,0.8-0.2,1.6-0.3,2.5c-0.4,3.6-1,8.1-3.4,10.6c-0.7,0.8-1.7,1.3-2.8,1.4
			c-2.3,0-4-2.5-5-4.6c-1.2,4.4-2.9,8.6-6.1,11.4c-2.5,2.1-5.3,1.9-8-0.7c-1.3-1-2.4-2.3-3.2-3.8c-2.3-3.9-4.5-8.2-7-13.3
			c-0.8-1.7-1.7-3.4-2.5-5.1c0.1,1.9,0.3,3.8,0.4,5.8c0,0.7,0,1.4,0.1,2.1c0.3,5.1,0.5,10.9-2.1,15.4c-0.9,1.8-2.8,3-4.9,3
			c-4.8,0-10.6-5.9-12.9-8.4c-1.2-1.3-2.4-2.8-3.6-4.3l0.5,3.2c0.2,1.3,0.5,2.7,0.8,4.2c1,5.3,2.2,11.2,0.7,16.1c-1,3.3-3,4-4.5,4
			c-3.1,0-6.6-2.9-8.9-5.1c-3-2.8-5.8-5.7-8.4-8.9c2.1,4.5,3.7,9.1,2.6,12c-0.4,1-1.2,1.8-2.3,2.2c-1.5,0.4-3,0.1-4.3-0.7
			c1.7,4,3,8.9,2,13.5c-0.9,4.2-6.8,4.7-10,5h-0.6c-4.9,0.4-10.3-0.5-16.3-2.8c-2.1-0.8-4.3-1.7-6.5-2.7c4,3.4,8.1,6.8,12.2,10.1
			c0.3,0.2,0.5,0.4,0.8,0.6c2.1,1.6,4.9,3.8,4.9,6.9c0,3.4-3,4.3-5.1,5l-0.3,0.1c-5.6,1.8-11.4,2.8-17.3,2.8h-0.2
			c-2.4,0-4.8-0.1-7.5-0.4l2.2,0.9c6.1,2.3,14.5,5.5,15.2,12.3c0.4,3.9-4.6,6.4-6.7,7.4c-3.6,1.3-7.3,2.2-11.1,2.7l-2.1,0.4
			c-3.1,0.5-6.3,0.8-9.5,0.9c12,4.5,18.7,8.1,19.8,10.7c0.3,0.6,0.3,1.3,0,1.9c-3.4,7-15.5,8.2-22,8.9h-0.2l0,0c1.9,0.8,4,1.6,6,2.3
			l0.7,0.3c6.5,2.4,13.8,5.2,18.6,10.3c1.8,1.9,2.4,3.8,1.9,5.7c-1.3,4.5-8.9,7.4-15.1,9.1c-7,1.8-14.1,3-21.3,3.5
			c1.2,0.4,2.4,0.7,3.6,1.1c0.5,0.2,1.1,0.3,1.8,0.5c3.7,1,8.8,2.3,11,5.4c0.8,0.9,1,2.2,0.6,3.3c-0.9,2.3-4.5,3.4-7.9,4.1h-0.2
			c-1.4,0.3-2.9,0.6-4.5,0.8c4.3,1.1,8.7,2.4,13.4,3.9l2.9,0.9c4.6,1.4,9.4,2.9,13.9,4.7l0.3,0.1c2.9,1.1,7.1,2.8,8.3,6.2
			c1.6,4.8-3.4,8-5.6,9.4l-2.1,1.3c-4.1,2.8-8.4,5.3-12.8,7.5c3-0.4,6-0.8,9-1.3l1.6-0.3c3.5-0.8,7.1-1.2,10.7-1.4
			c4,0,6.8,0.9,8.8,2.6c3,2.8,2.1,6.3,1.1,9c-2.5,6.3-6,12.1-10.5,17.2c4.9-3.5,10.3-6.4,15.9-8.4c1.9-0.7,4-1.1,6-1.2
			c3.7,0,5.4,1.9,6.1,3.5c1.5,3.3,0.6,7.3-0.3,10.9c-1.8,6.3-9.5,17.6-16.3,27.6l-2.3,3.4c7.4-7.4,17.2-17,21.2-20
			c1.8-1.3,6.6-4.5,11-4.5c2.3,0,6.3,0.9,7.3,7.1c0.3,1.7-2.2,5.9-7.4,14.3c-0.9,1.4-1.8,2.9-2.6,4.3c7.3-7.1,10.9-10.2,12.6-10.2
			c0.6,0,1.2,0.4,1.4,0.9c0.9,2.3-0.8,8.3-3.2,15.4c3.2-5.6,5.6-9.6,6.7-10.8c0.6-0.6,1.1-1.2,1.7-1.8c1.3-1.7,2.9-3.1,4.6-4.4
			c4.8-3.1,9.2-0.3,10.7,6.5c0.2,1.1,0.4,2.3,0.5,3.4c2.2-1.7,4.1-1.8,5.4-0.5c3,3,2.7,8.2,2.5,12l-0.1,1c0,0.4-0.1,0.9-0.3,1.3
			C140.3,300.3,144.9,294.9,149.5,295L149.5,295z"/>
	</g>
</g>
<g>
	<g>
		<g>
			<polygon class="st2" points="169,175.1 145,152.2 134.8,163 169.9,196.4 223.4,136.8 212.3,126.9 			"/>
			<path class="st2" d="M238,93.2c-18-3.2-34.6-13.1-42.9-18.6c-5.4-3.6-11.7-5.6-18.2-5.6c-6.5,0-12.8,1.9-18.2,5.6
				C150.5,80.1,134,90,116,93.2c-10.7,1.9-18.4,11.1-18.4,21.9v44.8c0,14.8,4.1,29.2,12.3,42.9c6.4,10.7,15.2,20.9,26.3,30.3
				c18.6,15.9,37,24.2,37.8,24.5l3,1.3l3-1.3c0.8-0.3,19.2-8.6,37.8-24.5c11.1-9.5,19.9-19.7,26.3-30.3
				c8.2-13.7,12.3-28.1,12.3-42.9v-44.8C256.4,104.3,248.7,95.1,238,93.2z M241.6,159.9c0,22.1-11.1,42.8-33.1,61.7
				c-12.8,11-25.8,18.1-31.5,21c-13.1-6.7-64.6-35.8-64.6-82.7v-44.8c0-3.6,2.6-6.7,6.2-7.3c20.7-3.7,39.3-14.7,48.5-20.9
				c2.9-2,6.4-3,9.9-3c3.5,0,7,1,9.9,3c9.2,6.2,27.8,17.2,48.5,20.9c3.6,0.6,6.2,3.7,6.2,7.3V159.9z"/>
		</g>
	</g>
</g>
</svg>
